<svg width="100" height="101" viewBox="0 0 100 101" fill="none" xmlns="http://www.w3.org/2000/svg">
<path fill-rule="evenodd" clip-rule="evenodd" d="M76.4949 16.6828C75.4167 16.9296 73.3843 17.7631 72.5011 18.3208C71.9867 18.6454 61.543 28.9747 49.2927 41.2747C37.0424 53.5747 22.314 68.3079 16.5628 74.0152C9.15693 81.3647 6.14898 84.5032 6.25258 84.7731C6.37602 85.0947 6.7853 85.1354 8.87159 85.0335C13.1228 84.8255 14.9382 83.8439 20.0714 78.9772C24.0169 75.2364 25.1458 74.3289 27.0212 73.3899C30.8321 71.4821 34.4822 71.4265 38.3092 73.2177C43.4382 75.6185 47.3953 76.4213 52.961 76.1906C57.1184 76.0182 58.9289 75.6959 61.8781 74.6032C69.5047 71.7778 75.3969 66.3298 78.9439 58.8245C79.5327 57.5788 80.1916 55.7879 80.4079 54.8449C80.6244 53.902 80.8997 52.7998 81.0199 52.3957C81.3322 51.3452 81.5056 49.4445 81.6345 45.6601C81.7493 42.2843 81.9634 41.3546 83.2456 38.6635C83.5067 38.1159 83.7203 37.5374 83.7203 37.3777C83.7203 37.2182 83.8231 37.0877 83.9488 37.0877C84.0744 37.0877 84.2468 36.868 84.3321 36.5998C84.5988 35.7587 86.353 33.7238 87.4476 32.9854C88.8867 32.0145 91.2491 31.2094 92.6589 31.2094C93.8321 31.2094 93.8321 31.2094 93.6802 29.8011C93.0613 24.059 88.0611 18.3439 82.3829 16.888C81.0302 16.5412 77.6306 16.4226 76.4949 16.6828Z" fill="black"/>
</svg>
