<svg width="100" height="101" viewBox="0 0 100 101" fill="none" xmlns="http://www.w3.org/2000/svg">
<path fill-rule="evenodd" clip-rule="evenodd" d="M31.4545 18.8836L50.2048 9.14581L69.9906 19.5361L55.7842 25.7818L50.6143 23.0688L44.4718 26.0377L31.4545 18.8836ZM25.5801 21.9343L13.145 28.3923V52.0187L26.0443 46.4103V34.9443L37.3055 41.2916L51.4333 34.9443L25.5801 21.9343ZM13.145 59.7869V73.8469L22.5735 78.5872L37.9198 71.7994L29.3203 67.2949L86.8551 41.7018V28.3923L76.8673 23.1474L62.6946 29.4161L71.2941 33.9206L13.145 59.7869ZM86.8551 49.4638L74.5701 54.8051V66.2711L63.3088 59.9239L49.1811 66.2711L75.6029 79.5673L86.8551 73.8469V49.4638ZM69.6428 82.5973L56.1426 75.1777L50.0001 78.1466L44.8301 75.4337L29.6102 82.1249L50.2048 92.4791L69.6428 82.5973Z" fill="black"/>
</svg>
