<svg width="100" height="101" viewBox="0 0 100 101" fill="none" xmlns="http://www.w3.org/2000/svg">
<path fill-rule="evenodd" clip-rule="evenodd" d="M45.3968 9.34435C40.7146 10.0937 35.619 12.4142 31.878 15.5002C30.611 16.545 29.327 17.3998 29.0243 17.3998C28.1638 17.3998 26.3923 16.4018 24.5799 14.8953C22.7969 13.4136 22.5674 13.627 23.577 15.8284C26.0923 21.3123 35.3889 30.2167 42.8748 34.3119C45.1935 35.5802 45.1935 35.5802 46.5251 34.7948C48.3319 33.7287 51.1789 33.7112 53.2654 34.754C54.8002 35.5212 54.8002 35.5212 56.2337 34.7948C62.2868 31.7281 70.9465 24.195 74.4008 18.9912C75.77 16.9281 77.2081 13.9514 76.9566 13.7C76.8742 13.6176 76.1147 14.1575 75.2689 14.8999C73.5969 16.3672 71.8125 17.3998 70.9492 17.3998C70.6486 17.3998 69.1871 16.4322 67.7016 15.2491C64.6992 12.8584 61.3206 11.1131 57.6546 10.0592C54.9078 9.26927 48.2788 8.8827 45.3968 9.34435ZM24.2038 26.4073C21.905 31.5294 21.8257 32.0466 21.5093 43.9395C21.2101 55.1993 20.8043 59.197 19.3834 64.8898C18.5938 68.0525 16.8157 72.961 15.5878 75.368C15.1768 76.1737 14.9373 76.9293 15.0557 77.0474C15.3685 77.3606 16.2625 76.7324 20.5225 73.2037C22.624 71.4632 24.3924 70.0989 24.4521 70.1719C24.5118 70.2448 25.9488 72.5831 27.6452 75.368C29.3417 78.153 30.8513 80.5733 30.9997 80.7469C31.1481 80.9204 32.8655 79.591 34.8158 77.7922C38.1986 74.6735 38.3858 74.554 38.8642 75.2071C39.1404 75.5838 41.6505 79.6242 44.4428 84.1855C47.2347 88.7472 49.7063 92.4791 49.9347 92.4791C50.1634 92.4791 52.7661 88.5457 55.7183 83.7382C58.6708 78.9306 61.2232 74.9127 61.3908 74.809C61.558 74.7056 63.2136 76.0462 65.0697 77.788C66.9257 79.5302 68.5334 80.955 68.6431 80.9543C68.7524 80.9539 69.8189 79.343 71.0131 77.3749C72.2071 75.4068 73.709 72.9648 74.3505 71.9483L75.5172 70.1003L80.1487 73.8151C82.6962 75.8583 84.862 77.4483 84.9618 77.3487C85.0614 77.2489 84.5679 75.8932 83.8646 74.3361C79.8344 65.4101 78.445 57.4887 78.445 43.4394C78.445 36.2021 78.3465 34.5871 77.7675 32.3232C77.0191 29.3968 75.036 24.384 74.6267 24.384C74.4832 24.384 73.3039 25.6526 72.0063 27.2027C70.468 29.0406 69.7113 30.2258 69.8325 30.6075C69.9345 30.9298 70.2571 31.822 70.5494 32.5903C71.7999 35.8767 70.716 40.0329 68.0851 42.0398C66.433 43.2997 63.7577 44.2887 62.0008 44.2887C60.5799 44.2887 60.5799 44.2887 60.8254 46.6458C60.9602 47.9424 61.0905 49.0215 61.1149 49.0445C61.1393 49.0672 63.0055 50.141 65.2624 51.4307C67.5193 52.7203 69.3656 53.8947 69.3656 54.0399C69.3656 54.1852 67.7547 55.186 65.7859 56.264C63.8171 57.342 61.6331 58.8209 60.933 59.5501C57.568 63.0543 55.1973 68.5152 51.3556 81.6112L49.985 86.2828L48.8372 82.4842C44.3946 67.7854 42.042 62.3727 38.7301 59.2291C38.1979 58.7242 36.191 57.4248 34.2704 56.3419C32.3497 55.259 30.6701 54.2645 30.5377 54.1325C30.4054 54.0001 32.2502 52.7919 34.6377 51.4474C38.6763 49.173 38.9787 48.93 38.9854 47.9554C38.9892 47.3792 39.0859 46.3417 39.2005 45.6503C39.4082 44.3924 39.4082 44.3924 37.3413 44.2049C33.6837 43.8735 30.5601 41.7395 29.2883 38.7031C28.63 37.1321 28.8748 33.0753 29.7345 31.3077C30.3582 30.025 30.3582 30.025 28.5259 27.9902C27.5178 26.871 26.5264 25.6016 26.3228 25.1697C25.7312 23.9164 25.1763 24.2404 24.2038 26.4073ZM33.0394 34.0098C32.5093 35.4042 32.6312 36.4015 33.4892 37.6894C34.4932 39.1966 36.572 40.2208 38.6149 40.2149C40.335 40.2096 42.8259 39.5248 42.8259 39.0569C42.8259 38.898 41.9222 38.2631 40.818 37.6461C39.7138 37.0287 37.6762 35.7565 36.2902 34.8189C34.9042 33.8813 33.6827 33.1141 33.5751 33.1141C33.4679 33.1141 33.2269 33.5171 33.0394 34.0098ZM64.3011 34.3667C63.3414 35.0557 61.338 36.3265 59.8497 37.1907C58.3614 38.0554 57.1434 38.8868 57.1434 39.0387C57.1434 39.5549 59.2215 40.1789 60.9396 40.1789C64.6688 40.1789 66.9212 38.5055 66.9212 35.7349C66.9212 34.1621 66.6613 33.1141 66.2716 33.1141C66.1473 33.1141 65.2607 33.6777 64.3011 34.3667ZM46.9598 39.1529C46.0295 39.8625 45.0574 41.075 44.4211 42.3192C43.5467 44.0285 43.3602 44.8726 43.195 47.8646C43.0005 51.394 43.0005 51.394 40.9978 52.4682C39.8968 53.059 38.993 53.7263 38.9899 53.9505C38.9871 54.1751 39.5252 54.6929 40.1863 55.1012C43.5009 57.15 46.2852 61.5926 48.4555 68.2966C49.1263 70.3688 49.8027 71.876 50.0615 71.876C50.3073 71.876 50.5085 71.6752 50.5085 71.4297C50.5085 70.4896 52.3641 65.291 53.6772 62.5539C55.0845 59.6192 58.0499 55.9986 59.9796 54.8588C60.5324 54.5323 60.9846 54.1531 60.9846 54.0165C60.9846 53.8796 60.0418 53.1952 58.8894 52.495C56.7942 51.2222 56.7942 51.2222 56.7886 48.8905C56.7778 44.2077 55.3093 40.6636 52.624 38.8386C50.7938 37.5951 48.862 37.7023 46.9598 39.1529Z" fill="black"/>
</svg>
