<svg width="100" height="101" viewBox="0 0 100 101" fill="none" xmlns="http://www.w3.org/2000/svg">
<path fill-rule="evenodd" clip-rule="evenodd" d="M19.2651 71.2208C20.2086 68.9871 21.3323 65.1827 22.1338 59.3051C22.5553 56.2138 22.7537 53.476 22.9307 51.0324C23.4224 44.2452 23.7497 39.7284 28.2378 36.2159C34.3419 31.4388 40.9767 28.5195 49.7346 30.6427C49.807 30.6602 49.8787 30.6777 49.9498 30.6951C51.0905 30.151 52.3674 29.8464 53.7155 29.8464C57.1999 29.8464 60.209 31.8813 61.6194 34.8274C62.9443 35.2818 64.5448 35.7401 66.7198 36.2159C75.2123 38.0736 84.2357 43.6469 79.724 50.5471C77.9493 53.2613 75.0659 56.3041 71.9783 59.5623L71.9782 59.5623L71.9782 59.5624C67.2164 64.5872 61.9691 70.1245 59.5542 75.7594C56.5527 82.7628 56.6189 85.1396 56.6815 87.0985C73.8654 83.9548 86.8896 68.9046 86.8896 50.8125C86.8896 30.4389 70.3736 13.9229 50 13.9229C29.6265 13.9229 13.1104 30.4389 13.1104 50.8125C13.1104 58.3589 15.3764 65.3762 19.2651 71.2208ZM91.6667 50.8125C91.6667 73.8243 73.0119 92.4791 50 92.4791C26.9882 92.4791 8.33337 73.8243 8.33337 50.8125C8.33337 27.8006 26.9882 9.14581 50 9.14581C73.0119 9.14581 91.6667 27.8006 91.6667 50.8125ZM44.6922 47.3624C47.7702 47.3624 50.2654 44.8671 50.2654 41.7891C50.2654 38.7111 47.7702 36.2159 44.6922 36.2159C41.6142 36.2159 39.1189 38.7111 39.1189 41.7891C39.1189 44.8671 41.6142 47.3624 44.6922 47.3624Z" fill="black"/>
</svg>
