<svg width="100" height="101" viewBox="0 0 100 101" fill="none" xmlns="http://www.w3.org/2000/svg">
<path fill-rule="evenodd" clip-rule="evenodd" d="M45.1159 9.28661C33.3074 10.7573 23.0331 16.9016 16.0413 26.6737C9.31778 36.071 6.79553 48.3198 9.25337 59.6365C11.4741 69.8615 17.5088 78.974 25.8749 84.7352C31.5942 88.6739 37.77 91.06 45.1122 92.1677C47.5469 92.5352 54.187 92.591 56.4185 92.2626C61.4207 91.5271 66.1797 89.7944 69.6452 87.4468C72.1354 85.76 72.4368 86.4724 66.9029 80.9638C62.396 76.4776 61.9626 76.105 60.9793 75.8705C59.8555 75.6027 58.6358 75.7732 55.4874 76.6387C53.6786 77.1358 46.3324 77.205 44.4637 76.7422C39.3304 75.4715 35.0109 73.1066 31.5912 69.6951C27.8522 65.965 25.8478 62.4054 24.3071 56.7592C23.8848 55.2109 23.824 54.4615 23.8229 50.7744C23.8216 47.0763 23.8809 46.3425 24.3058 44.7896C25.591 40.0936 26.9586 37.3718 29.8792 33.6986C33.4907 29.1564 39.8719 25.5586 45.9768 24.6229C49.0697 24.1486 54.0703 24.4046 56.7843 25.176C63.4354 27.0667 68.4559 30.7077 72.3038 36.4313C73.1239 37.6513 73.4133 38.2139 74.6782 41.0477C75.5614 43.0261 76.1563 45.5412 76.4602 48.5805C77.0494 54.4751 75.585 60.1851 72.0885 65.6271C71.6137 66.3661 71.2587 67.068 71.2998 67.1871C71.3409 67.3062 72.9784 69.0847 74.9389 71.1394C76.8994 73.1939 79.1283 75.5315 79.8918 76.3341C80.6554 77.1365 81.3858 77.786 81.5148 77.7776C81.8987 77.7518 83.9485 75.2614 85.4578 72.987C88.2453 68.7866 89.933 64.6679 91.0667 59.2998C91.6118 56.7192 91.6583 56.1088 91.6674 51.4229C91.6765 46.708 91.6339 46.1261 91.0738 43.3172C87.6025 25.9038 75.0997 13.216 58.0557 9.81034C55.6536 9.33027 54.4483 9.21982 50.9482 9.15886C48.63 9.11823 46.0055 9.17572 45.1159 9.28661ZM48.2464 34.264C41.4828 35.2732 36.4999 39.2847 34.3257 45.4714C33.4319 48.0137 33.2402 52.1493 33.8938 54.7732C35.7259 62.1251 42.5026 67.4179 50.0836 67.4179C58.4804 67.4179 65.7318 60.954 66.4814 52.801C66.7985 49.3506 66.2501 45.8445 65.0317 43.5334C62.5734 38.8699 58.4495 35.6087 53.6946 34.5677C52.4987 34.3059 49.1983 34.122 48.2464 34.264Z" fill="black"/>
</svg>
