<svg width="100" height="101" viewBox="0 0 100 101" fill="none" xmlns="http://www.w3.org/2000/svg">
<path d="M91.0234 50.8298V50.6682C90.9426 27.8048 72.526 9.14581 49.9858 9.14581C27.4456 9.14581 8.94824 27.8048 8.94824 50.8298C8.94824 73.8577 27.3619 92.4791 49.9858 92.4791C60.3672 92.4862 70.3516 88.4904 77.8617 81.323C78.6014 80.6472 79.0423 79.7053 79.0875 78.7044C79.1327 77.7035 78.7785 76.7256 78.1027 75.9859C77.4269 75.2462 76.4849 74.8053 75.484 74.7601C74.4831 74.7149 73.5052 75.0692 72.7656 75.7449L72.6847 75.8257C69.4443 78.9063 65.6148 81.3002 61.4261 82.8639C57.2375 84.4276 52.776 85.1287 48.3096 84.9252C43.8432 84.7218 39.464 83.6178 35.4349 81.6798C31.4058 79.7417 27.8098 77.0094 24.8629 73.647L42.3935 45.5345V58.5433C42.3935 64.7591 44.8175 66.782 46.8548 67.3475C48.8921 67.9131 51.9481 67.5034 55.258 62.2543L64.876 46.6369C65.1329 46.1809 65.4301 45.7481 65.7591 45.3412V53.2624C65.7591 59.0771 68.1023 63.7635 72.1394 66.023C74.003 67.0377 76.1066 67.5287 78.2269 67.4439C80.3471 67.359 82.4048 66.7015 84.1814 65.5411C88.8447 62.514 91.3495 57.213 91.0234 50.8298ZM80.3578 59.0108C79.7102 59.4569 78.9552 59.7218 78.1708 59.7781C77.3864 59.8344 76.6012 59.6801 75.8965 59.3311C74.2805 58.3644 73.3081 56.1857 73.3081 53.1961V44.0397C73.3081 39.6823 71.6113 36.5282 68.7054 35.726C63.7737 34.237 60.0627 40.3287 58.6862 42.5911L49.9858 56.5637V39.3591C49.905 35.4028 48.6093 33.0596 46.1853 32.3295C44.5694 31.8476 42.1454 32.0929 39.8051 35.6481L20.3352 66.8281C17.7451 61.8926 16.3877 56.4036 16.3789 50.8298C16.3789 32.0063 31.4827 16.7381 49.9858 16.7381C68.4889 16.7381 83.5927 32.0063 83.5927 50.8298V50.9943C83.786 54.6245 82.6202 57.539 80.3607 58.9877L80.3578 59.0108Z" fill="black"/>
</svg>
