<svg width="419" height="5" viewBox="0 0 419 5" fill="none" xmlns="http://www.w3.org/2000/svg">
<path d="M0.64 4.512V0.96H15.744V4.512H0.64ZM25.015 4.512V0.96H40.119V4.512H25.015ZM49.39 4.512V0.96H64.494V4.512H49.39ZM73.765 4.512V0.96H88.869V4.512H73.765ZM98.14 4.512V0.96H113.244V4.512H98.14ZM122.515 4.512V0.96H137.619V4.512H122.515ZM146.89 4.512V0.96H161.994V4.512H146.89ZM171.265 4.512V0.96H186.369V4.512H171.265ZM195.64 4.512V0.96H210.744V4.512H195.64ZM220.015 4.512V0.96H235.119V4.512H220.015ZM244.39 4.512V0.96H259.494V4.512H244.39ZM268.765 4.512V0.96H283.869V4.512H268.765ZM293.14 4.512V0.96H308.244V4.512H293.14ZM317.515 4.512V0.96H332.619V4.512H317.515ZM341.89 4.512V0.96H356.994V4.512H341.89ZM366.265 4.512V0.96H381.369V4.512H366.265ZM390.64 4.512V0.96H405.744V4.512H390.64ZM415.015 4.512V0.96H430.119V4.512H415.015ZM439.39 4.512V0.96H454.494V4.512H439.39ZM463.765 4.512V0.96H478.869V4.512H463.765ZM488.14 4.512V0.96H503.244V4.512H488.14ZM512.515 4.512V0.96H527.619V4.512H512.515ZM536.89 4.512V0.96H551.994V4.512H536.89ZM561.265 4.512V0.96H576.369V4.512H561.265ZM585.64 4.512V0.96H600.744V4.512H585.64ZM610.015 4.512V0.96H625.119V4.512H610.015ZM634.39 4.512V0.96H649.494V4.512H634.39ZM658.765 4.512V0.96H673.869V4.512H658.765ZM683.14 4.512V0.96H698.244V4.512H683.14ZM707.515 4.512V0.96H722.619V4.512H707.515ZM731.89 4.512V0.96H746.994V4.512H731.89ZM756.265 4.512V0.96H771.369V4.512H756.265ZM780.64 4.512V0.96H795.744V4.512H780.64ZM805.015 4.512V0.96H820.119V4.512H805.015ZM829.39 4.512V0.96H844.494V4.512H829.39ZM853.765 4.512V0.96H868.869V4.512H853.765ZM878.14 4.512V0.96H893.244V4.512H878.14ZM902.515 4.512V0.96H917.619V4.512H902.515ZM926.89 4.512V0.96H941.994V4.512H926.89ZM951.265 4.512V0.96H966.369V4.512H951.265ZM975.64 4.512V0.96H990.744V4.512H975.64ZM1000.02 4.512V0.96H1015.12V4.512H1000.02ZM1024.39 4.512V0.96H1039.49V4.512H1024.39ZM1048.77 4.512V0.96H1063.87V4.512H1048.77ZM1073.14 4.512V0.96H1088.24V4.512H1073.14ZM1097.52 4.512V0.96H1112.62V4.512H1097.52ZM1121.89 4.512V0.96H1136.99V4.512H1121.89ZM1146.27 4.512V0.96H1161.37V4.512H1146.27ZM1170.64 4.512V0.96H1185.74V4.512H1170.64ZM1195.02 4.512V0.96H1210.12V4.512H1195.02ZM1219.39 4.512V0.96H1234.49V4.512H1219.39ZM1243.77 4.512V0.96H1258.87V4.512H1243.77ZM1268.14 4.512V0.96H1283.24V4.512H1268.14ZM1292.52 4.512V0.96H1307.62V4.512H1292.52ZM1316.89 4.512V0.96H1331.99V4.512H1316.89ZM1341.27 4.512V0.96H1356.37V4.512H1341.27ZM1365.64 4.512V0.96H1380.74V4.512H1365.64ZM1390.02 4.512V0.96H1405.12V4.512H1390.02ZM1414.39 4.512V0.96H1429.49V4.512H1414.39ZM1438.77 4.512V0.96H1453.87V4.512H1438.77ZM1463.14 4.512V0.96H1478.24V4.512H1463.14ZM1487.52 4.512V0.96H1502.62V4.512H1487.52ZM1511.89 4.512V0.96H1526.99V4.512H1511.89ZM1536.27 4.512V0.96H1551.37V4.512H1536.27ZM1560.64 4.512V0.96H1575.74V4.512H1560.64ZM1585.02 4.512V0.96H1600.12V4.512H1585.02ZM1609.39 4.512V0.96H1624.49V4.512H1609.39ZM1633.77 4.512V0.96H1648.87V4.512H1633.77ZM1658.14 4.512V0.96H1673.24V4.512H1658.14ZM1682.52 4.512V0.96H1697.62V4.512H1682.52ZM1706.89 4.512V0.96H1721.99V4.512H1706.89ZM1731.27 4.512V0.96H1746.37V4.512H1731.27Z" fill="black"/>
</svg>
