<svg width="100" height="100" viewBox="0 0 100 100" fill="none" xmlns="http://www.w3.org/2000/svg">
<path fill-rule="evenodd" clip-rule="evenodd" d="M45.3968 8.53191C40.7146 9.2813 35.619 11.6018 31.878 14.6877C30.611 15.7325 29.327 16.5874 29.0243 16.5874C28.1638 16.5874 26.3923 15.5894 24.5799 14.0829C22.7969 12.6012 22.5674 12.8146 23.577 15.016C26.0923 20.4999 35.3889 29.4043 42.8748 33.4994C45.1935 34.7678 45.1935 34.7678 46.5251 33.9824C48.3319 32.9163 51.1789 32.8988 53.2654 33.9415C54.8002 34.7087 54.8002 34.7087 56.2337 33.9824C62.2868 30.9157 70.9465 23.3826 74.4008 18.1787C75.77 16.1156 77.2081 13.139 76.9566 12.8876C76.8742 12.8051 76.1147 13.345 75.2689 14.0874C73.5969 15.5548 71.8125 16.5874 70.9492 16.5874C70.6486 16.5874 69.1871 15.6197 67.7016 14.4366C64.6992 12.046 61.3206 10.3006 57.6546 9.24673C54.9078 8.45683 48.2788 8.07026 45.3968 8.53191ZM24.2038 25.5948C21.905 30.717 21.8257 31.2341 21.5093 43.1271C21.2101 54.3869 20.8043 58.3846 19.3834 64.0773C18.5938 67.2401 16.8157 72.1485 15.5878 74.5556C15.1768 75.3612 14.9373 76.1169 15.0557 76.2349C15.3685 76.5482 16.2625 75.92 20.5225 72.3912C22.624 70.6508 24.3924 69.2864 24.4521 69.3594C24.5118 69.4324 25.9488 71.7707 27.6452 74.5556C29.3417 77.3405 30.8513 79.7609 30.9997 79.9344C31.1481 80.108 32.8655 78.7785 34.8158 76.9798C38.1986 73.861 38.3858 73.7416 38.8642 74.3946C39.1404 74.7714 41.6505 78.8117 44.4428 83.3731C47.2347 87.9347 49.7063 91.6667 49.9347 91.6667C50.1634 91.6667 52.7661 87.7332 55.7183 82.9257C58.6708 78.1182 61.2232 74.1002 61.3908 73.9965C61.558 73.8932 63.2136 75.2338 65.0697 76.9756C66.9257 78.7178 68.5334 80.1425 68.6431 80.1419C68.7524 80.1415 69.8189 78.5306 71.0131 76.5625C72.2071 74.5944 73.709 72.1524 74.3505 71.1358L75.5172 69.2878L80.1487 73.0027C82.6962 75.0459 84.862 76.6358 84.9618 76.5363C85.0614 76.4364 84.5679 75.0808 83.8646 73.5237C79.8344 64.5976 78.445 56.6763 78.445 42.627C78.445 35.3897 78.3465 33.7746 77.7675 31.5107C77.0191 28.5844 75.036 23.5715 74.6267 23.5715C74.4832 23.5715 73.3039 24.8402 72.0063 26.3903C70.468 28.2282 69.7113 29.4134 69.8325 29.7951C69.9345 30.1174 70.2571 31.0096 70.5494 31.7779C71.7999 35.0642 70.716 39.2205 68.0851 41.2274C66.433 42.4873 63.7577 43.4763 62.0008 43.4763C60.5799 43.4763 60.5799 43.4763 60.8254 45.8334C60.9602 47.13 61.0905 48.2091 61.1149 48.2321C61.1393 48.2548 63.0055 49.3286 65.2624 50.6182C67.5193 51.9078 69.3656 53.0822 69.3656 53.2275C69.3656 53.3728 67.7547 54.3736 65.7859 55.4516C63.8171 56.5296 61.6331 58.0085 60.933 58.7376C57.568 62.2419 55.1973 67.7028 51.3556 80.7987L49.985 85.4704L48.8372 81.6717C44.3946 66.9729 42.042 61.5602 38.7301 58.4167C38.1979 57.9117 36.191 56.6123 34.2704 55.5295C32.3497 54.4466 30.6701 53.452 30.5377 53.32C30.4054 53.1877 32.2502 51.9794 34.6377 50.635C38.6763 48.3606 38.9787 48.1176 38.9854 47.1429C38.9892 46.5667 39.0859 45.5292 39.2005 44.8378C39.4082 43.58 39.4082 43.58 37.3413 43.3925C33.6837 43.0611 30.5601 40.9271 29.2883 37.8907C28.63 36.3196 28.8748 32.2629 29.7345 30.4952C30.3582 29.2126 30.3582 29.2126 28.5259 27.1778C27.5178 26.0586 26.5264 24.7892 26.3228 24.3572C25.7312 23.1039 25.1763 23.428 24.2038 25.5948ZM33.0394 33.1974C32.5093 34.5918 32.6312 35.5891 33.4892 36.877C34.4932 38.3841 36.572 39.4084 38.6149 39.4024C40.335 39.3972 42.8259 38.7124 42.8259 38.2445C42.8259 38.0856 41.9222 37.4507 40.818 36.8337C39.7138 36.2163 37.6762 34.9441 36.2902 34.0065C34.9042 33.0689 33.6827 32.3017 33.5751 32.3017C33.4679 32.3017 33.2269 32.7047 33.0394 33.1974ZM64.3011 33.5543C63.3414 34.2433 61.338 35.514 59.8497 36.3783C58.3614 37.2429 57.1434 38.0744 57.1434 38.2263C57.1434 38.7424 59.2215 39.3665 60.9396 39.3665C64.6688 39.3665 66.9212 37.6931 66.9212 34.9225C66.9212 33.3496 66.6613 32.3017 66.2716 32.3017C66.1473 32.3017 65.2607 32.8653 64.3011 33.5543ZM46.9598 38.3405C46.0295 39.0501 45.0574 40.2625 44.4211 41.5067C43.5467 43.2161 43.3602 44.0601 43.195 47.0521C43.0005 50.5816 43.0005 50.5816 40.9978 51.6557C39.8968 52.2466 38.993 52.9139 38.9899 53.1381C38.9871 53.3626 39.5252 53.8805 40.1863 54.2887C43.5009 56.3375 46.2852 60.7801 48.4555 67.4842C49.1263 69.5564 49.8027 71.0635 50.0615 71.0635C50.3073 71.0635 50.5085 70.8627 50.5085 70.6173C50.5085 69.6772 52.3641 64.4786 53.6772 61.7415C55.0845 58.8068 58.0499 55.1862 59.9796 54.0464C60.5324 53.7199 60.9846 53.3406 60.9846 53.2041C60.9846 53.0672 60.0418 52.3828 58.8894 51.6826C56.7942 50.4097 56.7942 50.4097 56.7886 48.0781C56.7778 43.3952 55.3093 39.8512 52.624 38.0262C50.7938 36.7827 48.862 36.8899 46.9598 38.3405Z" fill="white"/>
</svg>
