<svg width="100" height="100" viewBox="0 0 100 100" fill="none" xmlns="http://www.w3.org/2000/svg">
<path fill-rule="evenodd" clip-rule="evenodd" d="M76.4949 15.8703C75.4167 16.1172 73.3843 16.9507 72.5011 17.5084C71.9867 17.8329 61.543 28.1623 49.2927 40.4623C37.0424 52.7623 22.314 67.4954 16.5628 73.2027C9.15693 80.5523 6.14898 83.6908 6.25258 83.9607C6.37602 84.2823 6.7853 84.3229 8.87159 84.2211C13.1228 84.0131 14.9382 83.0314 20.0714 78.1647C24.0169 74.4239 25.1458 73.5165 27.0212 72.5774C30.8321 70.6697 34.4822 70.6141 38.3092 72.4053C43.4382 74.806 47.3953 75.6089 52.961 75.3782C57.1184 75.2058 58.9289 74.8834 61.8781 73.7908C69.5047 70.9653 75.3969 65.5174 78.9439 58.0121C79.5327 56.7664 80.1916 54.9755 80.4079 54.0325C80.6244 53.0895 80.8997 51.9874 81.0199 51.5832C81.3322 50.5327 81.5056 48.6321 81.6345 44.8477C81.7493 41.4719 81.9634 40.5421 83.2456 37.8511C83.5067 37.3034 83.7203 36.7249 83.7203 36.5652C83.7203 36.4058 83.8231 36.2752 83.9488 36.2752C84.0744 36.2752 84.2468 36.0555 84.3321 35.7873C84.5988 34.9463 86.353 32.9114 87.4476 32.1729C88.8867 31.2021 91.2491 30.397 92.6589 30.397C93.8321 30.397 93.8321 30.397 93.6802 28.9886C93.0613 23.2466 88.0611 17.5314 82.3829 16.0756C81.0302 15.7288 77.6306 15.6102 76.4949 15.8703Z" fill="white"/>
</svg>
