<svg width="100" height="100" viewBox="0 0 100 100" fill="none" xmlns="http://www.w3.org/2000/svg">
<path fill-rule="evenodd" clip-rule="evenodd" d="M19.2651 70.4084C20.2086 68.1747 21.3323 64.3702 22.1338 58.4926C22.5553 55.4014 22.7537 52.6635 22.9307 50.2199C23.4224 43.4328 23.7497 38.9159 28.2378 35.4035C34.3419 30.6264 40.9767 27.7071 49.7346 29.8302C49.807 29.8477 49.8787 29.8652 49.9498 29.8827C51.0905 29.3386 52.3674 29.034 53.7155 29.034C57.1999 29.034 60.209 31.0688 61.6194 34.015C62.9443 34.4693 64.5448 34.9277 66.7198 35.4035C75.2123 37.2612 84.2357 42.8344 79.724 49.7346C77.9493 52.4489 75.0659 55.4916 71.9783 58.7498L71.9782 58.7499L71.9782 58.75C67.2164 63.7748 61.9691 69.312 59.5542 74.947C56.5527 81.9503 56.6189 84.3271 56.6815 86.2861C73.8654 83.1423 86.8896 68.0922 86.8896 50C86.8896 29.6265 70.3736 13.1104 50 13.1104C29.6265 13.1104 13.1104 29.6265 13.1104 50C13.1104 57.5465 15.3764 64.5637 19.2651 70.4084ZM91.6667 50C91.6667 73.0119 73.0119 91.6667 50 91.6667C26.9882 91.6667 8.33337 73.0119 8.33337 50C8.33337 26.9882 26.9882 8.33337 50 8.33337C73.0119 8.33337 91.6667 26.9882 91.6667 50ZM44.6922 46.5499C47.7702 46.5499 50.2654 44.0547 50.2654 40.9767C50.2654 37.8987 47.7702 35.4034 44.6922 35.4034C41.6142 35.4034 39.1189 37.8987 39.1189 40.9767C39.1189 44.0547 41.6142 46.5499 44.6922 46.5499Z" fill="white"/>
</svg>
