<svg width="100" height="100" viewBox="0 0 100 100" fill="none" xmlns="http://www.w3.org/2000/svg">
<path fill-rule="evenodd" clip-rule="evenodd" d="M45.1159 8.47417C33.3074 9.94485 23.0331 16.0891 16.0413 25.8613C9.31778 35.2586 6.79553 47.5074 9.25337 58.8241C11.4741 69.0491 17.5088 78.1615 25.8749 83.9228C31.5942 87.8615 37.77 90.2475 45.1122 91.3553C47.5469 91.7227 54.187 91.7785 56.4185 91.4502C61.4207 90.7146 66.1797 88.982 69.6452 86.6344C72.1354 84.9475 72.4368 85.66 66.9029 80.1514C62.396 75.6652 61.9626 75.2926 60.9793 75.058C59.8555 74.7902 58.6358 74.9608 55.4874 75.8262C53.6786 76.3234 46.3324 76.3925 44.4637 75.9298C39.3304 74.659 35.0109 72.2941 31.5912 68.8826C27.8522 65.1525 25.8478 61.593 24.3071 55.9467C23.8848 54.3984 23.824 53.649 23.8229 49.962C23.8216 46.2639 23.8809 45.53 24.3058 43.9772C25.591 39.2811 26.9586 36.5594 29.8792 32.8861C33.4907 28.344 39.8719 24.7461 45.9768 23.8104C49.0697 23.3362 54.0703 23.5921 56.7843 24.3636C63.4354 26.2542 68.4559 29.8953 72.3038 35.6189C73.1239 36.8389 73.4133 37.4015 74.6782 40.2352C75.5614 42.2136 76.1563 44.7288 76.4602 47.768C77.0494 53.6627 75.585 59.3727 72.0885 64.8147C71.6137 65.5537 71.2587 66.2556 71.2998 66.3746C71.3409 66.4937 72.9784 68.2722 74.9389 70.327C76.8994 72.3815 79.1283 74.7191 79.8918 75.5217C80.6554 76.324 81.3858 76.9736 81.5148 76.9651C81.8987 76.9394 83.9485 74.4489 85.4578 72.1746C88.2453 67.9742 89.933 63.8554 91.0667 58.4873C91.6118 55.9067 91.6583 55.2963 91.6674 50.6104C91.6765 45.8955 91.6339 45.3137 91.0738 42.5048C87.6025 25.0913 75.0997 12.4036 58.0557 8.9979C55.6536 8.51783 54.4483 8.40738 50.9482 8.34642C48.63 8.30579 46.0055 8.36328 45.1159 8.47417ZM48.2464 33.4516C41.4828 34.4608 36.4999 38.4723 34.3257 44.6589C33.4319 47.2013 33.2402 51.3369 33.8938 53.9607C35.7259 61.3126 42.5026 66.6055 50.0836 66.6055C58.4804 66.6055 65.7318 60.1415 66.4814 51.9886C66.7985 48.5382 66.2501 45.032 65.0317 42.7209C62.5734 38.0575 58.4495 34.7962 53.6946 33.7553C52.4987 33.4935 49.1983 33.3096 48.2464 33.4516Z" fill="white"/>
</svg>
