<svg width="100" height="100" viewBox="0 0 100 100" fill="none" xmlns="http://www.w3.org/2000/svg">
<path d="M91.0234 50.0173V49.8558C90.9426 26.9923 72.526 8.33337 49.9858 8.33337C27.4456 8.33337 8.94824 26.9923 8.94824 50.0173C8.94824 73.0452 27.3619 91.6667 49.9858 91.6667C60.3672 91.6738 70.3516 87.6779 77.8617 80.5106C78.6014 79.8348 79.0423 78.8928 79.0875 77.8919C79.1327 76.891 78.7785 75.9132 78.1027 75.1735C77.4269 74.4338 76.4849 73.9928 75.484 73.9476C74.4831 73.9024 73.5052 74.2567 72.7656 74.9325L72.6847 75.0133C69.4443 78.0938 65.6148 80.4878 61.4261 82.0515C57.2375 83.6151 52.776 84.3163 48.3096 84.1128C43.8432 83.9093 39.464 82.8054 35.4349 80.8673C31.4058 78.9293 27.8098 76.197 24.8629 72.8346L42.3935 44.7221V57.7308C42.3935 63.9466 44.8175 65.9695 46.8548 66.5351C48.8921 67.1007 51.9481 66.6909 55.258 61.4418L64.876 45.8244C65.1329 45.3685 65.4301 44.9356 65.7591 44.5287V52.45C65.7591 58.2647 68.1023 62.9511 72.1394 65.2106C74.003 66.2253 76.1066 66.7163 78.2269 66.6315C80.3471 66.5466 82.4048 65.8891 84.1814 64.7287C88.8447 61.7016 91.3495 56.4005 91.0234 50.0173ZM80.3578 58.1983C79.7102 58.6444 78.9552 58.9094 78.1708 58.9657C77.3864 59.022 76.6012 58.8677 75.8965 58.5186C74.2805 57.5519 73.3081 55.3732 73.3081 52.3836V43.2273C73.3081 38.8699 71.6113 35.7158 68.7054 34.9136C63.7737 33.4246 60.0627 39.5163 58.6862 41.7787L49.9858 55.7512V38.5467C49.905 34.5904 48.6093 32.2472 46.1853 31.5171C44.5694 31.0352 42.1454 31.2805 39.8051 34.8357L20.3352 66.0157C17.7451 61.0802 16.3877 55.5912 16.3789 50.0173C16.3789 31.1939 31.4827 15.9257 49.9858 15.9257C68.4889 15.9257 83.5927 31.1939 83.5927 50.0173V50.1818C83.786 53.812 82.6202 56.7266 80.3607 58.1752L80.3578 58.1983Z" fill="white"/>
</svg>
