<svg width="100" height="100" viewBox="0 0 100 100" fill="none" xmlns="http://www.w3.org/2000/svg">
<path fill-rule="evenodd" clip-rule="evenodd" d="M31.4545 18.0711L50.2048 8.33337L69.9906 18.7237L55.7842 24.9693L50.6143 22.2564L44.4718 25.2253L31.4545 18.0711ZM25.5801 21.1219L13.145 27.5799V51.2063L26.0443 45.5979V34.1319L37.3055 40.4792L51.4333 34.1319L25.5801 21.1219ZM13.145 58.9745V73.0344L22.5735 77.7747L37.9198 70.9869L29.3203 66.4824L86.8551 40.8894V27.5799L76.8673 22.3349L62.6946 28.6036L71.2941 33.1081L13.145 58.9745ZM86.8551 48.6514L74.5701 53.9927V65.4587L63.3088 59.1114L49.1811 65.4587L75.6029 78.7548L86.8551 73.0344V48.6514ZM69.6428 81.7848L56.1426 74.3653L50.0001 77.3342L44.8301 74.6212L29.6102 81.3125L50.2048 91.6667L69.6428 81.7848Z" fill="white"/>
</svg>
