<svg width="28" height="26" viewBox="0 0 28 26" fill="none" xmlns="http://www.w3.org/2000/svg">
<path fill-rule="evenodd" clip-rule="evenodd" d="M-0.00012207 0.162525C-0.00012207 0.20073 2.34582 3.28673 6.2504 8.38503C8.05969 10.7473 10.027 13.3233 10.3153 13.7072C10.5436 14.0115 10.5436 14.0115 6.30488 18.8531C1.095 24.8041 0.590242 25.3871 0.590242 25.4547C0.590242 25.4842 1.56687 25.4983 2.7605 25.4859L4.93077 25.4634L8.64306 21.2273C10.6848 18.8975 12.4173 16.9298 12.493 16.8547C12.6201 16.7286 12.8616 17.0203 15.6446 20.6604C17.3023 22.8285 18.8153 24.8056 19.007 25.0538L19.3554 25.5049L23.6777 25.5052C26.055 25.5054 28 25.4793 28 25.4472C28 25.3824 26.872 23.8806 21.0189 16.1527C17.0591 10.9245 17.0329 10.8872 17.1892 10.7121C17.2758 10.615 18.0273 9.75763 18.8592 8.80672C19.691 7.85581 21.0363 6.31876 21.8487 5.39104C22.6609 4.46333 23.99 2.94525 24.8021 2.01753C25.6142 1.08982 26.3077 0.283381 26.3431 0.225356C26.394 0.142115 25.9497 0.119934 24.2273 0.119934H22.0471L18.5506 4.12471C16.6276 6.32744 15.0308 8.13016 15.0023 8.13075C14.9738 8.13143 13.9684 6.8322 12.7682 5.24345C11.568 3.6547 10.2061 1.85215 9.74172 1.23766L8.8975 0.120524L4.44869 0.120187C2.0018 0.120018 -0.00012207 0.139079 -0.00012207 0.162525ZM8.69855 4.14706C9.32257 4.97045 11.0247 7.21906 12.481 9.14407C13.9374 11.0691 15.6029 13.2703 16.182 14.0357C16.7611 14.801 18.2802 16.8125 19.5576 18.5056C20.8352 20.1986 22.0808 21.844 22.3257 22.1618C22.5707 22.4798 22.7711 22.7739 22.7711 22.8155C22.7711 22.8571 22.2845 22.8911 21.6899 22.8911H20.6088L17.6567 19.0327C16.0331 16.9106 13.0931 13.0679 11.1234 10.4935C9.15372 7.91906 7.00067 5.10117 6.33895 4.2314L5.13579 2.65007H6.34992H7.56404L8.69855 4.14706Z" fill="black"/>
</svg>
