<svg width="32" height="33" viewBox="0 0 32 33" fill="none" xmlns="http://www.w3.org/2000/svg">
<path fill-rule="evenodd" clip-rule="evenodd" d="M25.9482 5.25259C25.4267 5.34037 23.4372 6.11783 18.4202 8.19432C12.7842 10.5269 1.27751 15.5045 0.755611 15.8357C0.306247 16.1208 0.0540758 16.4404 0.00810759 16.7833C-0.0849837 17.477 0.588446 17.8038 3.86327 18.654C5.01263 18.9524 6.09161 19.2309 6.26101 19.273C6.71068 19.3847 7.5716 19.2988 8.16295 19.0831C8.8671 18.8262 9.80272 18.2799 11.0166 17.4166C11.5772 17.0179 12.6249 16.2937 13.3449 15.8071C14.0648 15.3205 15.3122 14.4646 16.1168 13.9051C18.3182 12.3741 20.2496 11.1133 20.481 11.0562C20.9155 10.9489 21.2178 11.2376 21.0732 11.6217C21.036 11.7202 20.8586 11.9753 20.6787 12.1886C20.3866 12.5351 15.93 16.7629 13.487 19.0109C12.4632 19.953 12.15 20.4169 12.1531 20.9863C12.1553 21.3967 12.3765 21.8695 12.6893 22.1328C12.8278 22.2493 14.1754 23.1612 15.6839 24.1594C17.1925 25.1574 18.915 26.3157 19.5118 26.7334C20.9073 27.7099 21.5439 28.0804 22.1501 28.2688C23.1024 28.5648 23.8778 28.4198 24.3757 27.8526C24.9615 27.1855 25.1952 26.4065 25.5104 24.0704C25.6191 23.2658 25.8613 21.6373 26.0489 20.4515C27.1855 13.266 27.9191 8.27795 27.9854 7.28474C28.0388 6.48442 27.9493 6.05631 27.6555 5.70704C27.2894 5.272 26.7251 5.12177 25.9482 5.25259Z" fill="black"/>
</svg>
