<svg width="96" height="97" viewBox="0 0 96 97" fill="none" xmlns="http://www.w3.org/2000/svg">
<g filter="url(#filter0_dd_347_959)">
<path fill-rule="evenodd" clip-rule="evenodd" d="M29.0535 1.43661C18.7323 5.20692 14.9411 20.608 22.5178 27.9871C27.541 32.8801 35.6013 31.1598 40.237 24.2052C42.4832 20.8353 43.2497 18.1517 43.2269 13.7385C43.199 8.34213 41.5969 5.04403 37.711 2.38383C36.1529 1.31716 35.6642 1.17459 33.1869 1.06459C31.3804 0.984373 29.9358 1.11433 29.0535 1.43661ZM56.0282 5.34109C47.3678 9.58991 43.8377 21.6995 49.4364 27.9528C52.2713 31.1192 57.116 31.8142 61.5223 29.6868C64.4897 28.2544 66.3858 26.6083 68.1623 23.9226C69.9805 21.1741 70.9897 17.8931 70.9922 14.724C70.9947 11.5295 70.5321 9.8621 69.1068 7.92492C66.9731 5.02512 65.1202 4.12379 61.2679 4.11293C58.8603 4.10627 58.258 4.24744 56.0282 5.34109ZM76.4912 23.8444C71.3355 25.1595 67.1538 28.4894 65.0491 32.9565C63.9896 35.2048 63.8099 35.9611 63.8099 38.168C63.8099 40.254 63.9903 41.1046 64.7505 42.6C68.2259 49.4393 79.0946 49.1966 85.9125 42.1271C88.5002 39.4438 89.6537 36.8782 89.8273 33.4186C90.0474 29.0398 88.6088 26.4283 84.9959 24.6459C82.7222 23.5243 79.0886 23.1817 76.4912 23.8444ZM25.0515 36.8305C19.431 37.9052 15.7509 39.7366 11.7833 43.4323C2.26267 52.3006 1.34175 63.2605 9.76429 67.454C12.3863 68.7596 14.6504 69.2878 19.0281 69.6157C25.5549 70.104 26.4876 70.784 27.0566 75.4675C27.7078 80.8261 29.2785 84.5779 31.7162 86.5984C33.9706 88.4669 35.7885 89.0362 39.5189 89.0414C42.4353 89.0456 43.1887 88.9184 44.8772 88.1373C49.59 85.957 53.5488 81.9586 56.1082 76.7934C62.2882 64.3233 61.4187 53.7522 53.5259 45.3923C49.7779 41.4223 44.5064 38.4181 39.1617 37.2057C35.6177 36.4017 28.3097 36.2077 25.0515 36.8305ZM75.7768 50.1357C73.3337 50.8955 71.2915 52.0901 69.7126 53.6829C67.6557 55.7584 66.9052 57.4269 66.8802 59.9785C66.8159 66.5789 74.6601 70.8323 82.8101 68.616C85.242 67.9546 88.0891 66.3908 89.4344 64.977C89.8502 64.5398 90.6246 63.3316 91.1551 62.2923C91.9867 60.6634 92.0949 60.1004 91.9406 58.2137C91.8288 56.8472 91.4509 55.4827 90.9354 54.5832C89.9577 52.8772 87.1375 50.8696 84.7134 50.1543C82.6197 49.5363 77.7368 49.5262 75.7768 50.1357Z" fill="white"/>
</g>
<defs>
<filter id="filter0_dd_347_959" x="0" y="0.0415039" width="96" height="96" filterUnits="userSpaceOnUse" color-interpolation-filters="sRGB">
<feFlood flood-opacity="0" result="BackgroundImageFix"/>
<feColorMatrix in="SourceAlpha" type="matrix" values="0 0 0 0 0 0 0 0 0 0 0 0 0 0 0 0 0 0 127 0" result="hardAlpha"/>
<feOffset dy="3"/>
<feComposite in2="hardAlpha" operator="out"/>
<feColorMatrix type="matrix" values="0 0 0 0 0.0980392 0 0 0 0 0 0 0 0 0 0 0 0 0 0.6 0"/>
<feBlend mode="normal" in2="BackgroundImageFix" result="effect1_dropShadow_347_959"/>
<feColorMatrix in="SourceAlpha" type="matrix" values="0 0 0 0 0 0 0 0 0 0 0 0 0 0 0 0 0 0 127 0" result="hardAlpha"/>
<feOffset dy="3"/>
<feGaussianBlur stdDeviation="2"/>
<feComposite in2="hardAlpha" operator="out"/>
<feColorMatrix type="matrix" values="0 0 0 0 0.764706 0 0 0 0 0.470588 0 0 0 0 0.552941 0 0 0 0.32 0"/>
<feBlend mode="normal" in2="effect1_dropShadow_347_959" result="effect2_dropShadow_347_959"/>
<feBlend mode="normal" in="SourceGraphic" in2="effect2_dropShadow_347_959" result="shape"/>
</filter>
</defs>
</svg>
