<svg width="500" height="97" viewBox="0 0 500 97" fill="none" xmlns="http://www.w3.org/2000/svg">
<g filter="url(#filter0_dd_347_957)">
<path d="M48.544 70.0415L41.12 42.6495L33.696 70.0415H18.336L4.448 23.9615H19.04L26.848 56.3455L34.656 23.9615H48.736L56.352 56.2815L63.968 23.9615H77.6L63.904 70.0415H48.544ZM108.411 69.5295C105.339 70.5535 101.755 70.9375 97.915 70.9375C84.667 70.9375 76.155 64.7295 76.155 52.1215C76.155 41.3695 83.259 33.4975 94.139 33.4975C105.019 33.4975 110.715 41.8175 110.715 52.1215C110.715 53.7215 110.651 55.4495 110.395 56.8575H89.851C91.451 60.1855 95.035 61.0175 100.219 61.0175C103.035 61.0175 105.211 60.6335 107.451 59.9295L108.411 69.5295ZM94.395 44.6975C92.155 44.6975 89.851 45.8495 89.147 49.6255H99.323C99.195 46.8735 97.147 44.6975 94.395 44.6975ZM114.88 70.0415V21.4015H127.04V70.0415H114.88ZM158.994 58.0735L159.826 68.9535C157.586 70.1055 154.194 70.9375 150.866 70.9375C139.09 70.9375 131.218 64.3455 131.218 52.2495C131.218 40.9855 138.514 33.4975 150.354 33.4975C153.746 33.4975 157.394 34.2655 159.826 35.2895L158.866 47.4495C156.882 46.4895 154.642 45.9775 152.018 45.9775C146.898 45.9775 144.018 48.7935 144.018 53.1455C144.018 57.3055 146.962 59.7375 151.826 59.7375C154.066 59.7375 156.754 59.1615 158.994 58.0735ZM163.03 52.2495C163.03 41.4335 170.902 33.4975 182.102 33.4975C193.302 33.4975 201.11 41.4335 201.11 52.2495C201.11 63.0655 193.302 70.9375 182.102 70.9375C170.902 70.9375 163.03 63.0655 163.03 52.2495ZM182.102 59.7375C185.494 59.7375 188.31 57.1775 188.31 52.9535C188.31 48.9855 185.686 45.9775 182.102 45.9775C178.454 45.9775 175.83 48.9855 175.83 52.9535C175.83 57.1775 178.646 59.7375 182.102 59.7375ZM217.415 52.9535V70.0415H205.255V34.3935H217.223V38.4255H217.479C219.719 35.4815 222.535 33.4975 227.207 33.4975C232.711 33.4975 236.551 36.0575 238.471 40.4095C241.351 35.2895 245.255 33.4975 249.735 33.4975C257.927 33.4975 262.343 39.1295 262.343 47.7695V70.0415H250.183V53.0175C250.183 48.9855 248.775 46.2975 244.999 46.2975C241.351 46.2975 239.879 48.9855 239.879 52.9535V70.0415H227.719V53.0175C227.719 48.9855 226.311 46.2975 222.535 46.2975C218.887 46.2975 217.415 48.9855 217.415 52.9535ZM298.411 69.5295C295.339 70.5535 291.755 70.9375 287.915 70.9375C274.667 70.9375 266.155 64.7295 266.155 52.1215C266.155 41.3695 273.259 33.4975 284.139 33.4975C295.019 33.4975 300.715 41.8175 300.715 52.1215C300.715 53.7215 300.651 55.4495 300.395 56.8575H279.851C281.451 60.1855 285.035 61.0175 290.219 61.0175C293.035 61.0175 295.211 60.6335 297.451 59.9295L298.411 69.5295ZM284.395 44.6975C282.155 44.6975 279.851 45.8495 279.147 49.6255H289.323C289.195 46.8735 287.147 44.6975 284.395 44.6975ZM320.942 55.5135V45.9135H315.758V34.3935H321.902L323.182 25.7535H333.102V34.3935H341.87V45.9135H333.102V54.7455C333.102 58.3935 334.51 59.7375 337.326 59.7375C339.246 59.7375 340.59 59.4815 341.87 59.1615L342.702 70.0415C340.718 70.6175 337.71 70.9375 335.022 70.9375C323.885 70.9375 320.942 64.4735 320.942 55.5135ZM344.593 52.2495C344.593 41.4335 352.465 33.4975 363.665 33.4975C374.865 33.4975 382.673 41.4335 382.673 52.2495C382.673 63.0655 374.865 70.9375 363.665 70.9375C352.465 70.9375 344.593 63.0655 344.593 52.2495ZM363.665 59.7375C367.057 59.7375 369.873 57.1775 369.873 52.9535C369.873 48.9855 367.249 45.9775 363.665 45.9775C360.017 45.9775 357.393 48.9855 357.393 52.9535C357.393 57.1775 360.208 59.7375 363.665 59.7375Z" fill="white"/>
</g>
<g filter="url(#filter1_dd_347_957)">
<path fill-rule="evenodd" clip-rule="evenodd" d="M433.053 1.43661C422.732 5.20692 418.941 20.608 426.518 27.9871C431.541 32.8801 439.601 31.1598 444.237 24.2052C446.483 20.8353 447.25 18.1517 447.227 13.7385C447.199 8.34213 445.597 5.04403 441.711 2.38383C440.153 1.31716 439.664 1.17459 437.187 1.06459C435.38 0.984373 433.936 1.11433 433.053 1.43661ZM460.028 5.34109C451.368 9.58991 447.838 21.6995 453.436 27.9528C456.271 31.1192 461.116 31.8142 465.522 29.6868C468.49 28.2544 470.386 26.6083 472.162 23.9226C473.981 21.1741 474.99 17.8931 474.992 14.724C474.995 11.5295 474.532 9.8621 473.107 7.92492C470.973 5.02512 469.12 4.12379 465.268 4.11293C462.86 4.10627 462.258 4.24744 460.028 5.34109ZM480.491 23.8444C475.335 25.1595 471.154 28.4894 469.049 32.9565C467.99 35.2048 467.81 35.9611 467.81 38.168C467.81 40.254 467.99 41.1046 468.75 42.6C472.226 49.4393 483.095 49.1966 489.913 42.1271C492.5 39.4438 493.654 36.8782 493.827 33.4186C494.047 29.0398 492.609 26.4283 488.996 24.6459C486.722 23.5243 483.089 23.1817 480.491 23.8444ZM429.052 36.8305C423.431 37.9052 419.751 39.7366 415.783 43.4323C406.263 52.3006 405.342 63.2605 413.764 67.454C416.386 68.7596 418.65 69.2878 423.028 69.6157C429.555 70.104 430.488 70.784 431.057 75.4675C431.708 80.8261 433.279 84.5779 435.716 86.5984C437.971 88.4669 439.788 89.0362 443.519 89.0414C446.435 89.0456 447.189 88.9184 448.877 88.1373C453.59 85.957 457.549 81.9586 460.108 76.7934C466.288 64.3233 465.419 53.7522 457.526 45.3923C453.778 41.4223 448.506 38.4181 443.162 37.2057C439.618 36.4017 432.31 36.2077 429.052 36.8305ZM479.777 50.1357C477.334 50.8955 475.292 52.0901 473.713 53.6829C471.656 55.7584 470.905 57.4269 470.88 59.9785C470.816 66.5789 478.66 70.8323 486.81 68.616C489.242 67.9546 492.089 66.3908 493.434 64.977C493.85 64.5398 494.625 63.3316 495.155 62.2923C495.987 60.6634 496.095 60.1004 495.941 58.2137C495.829 56.8472 495.451 55.4827 494.935 54.5832C493.958 52.8772 491.137 50.8696 488.713 50.1543C486.62 49.5363 481.737 49.5262 479.777 50.1357Z" fill="white"/>
</g>
<defs>
<filter id="filter0_dd_347_957" x="0.447998" y="20.4016" width="386.225" height="57.5359" filterUnits="userSpaceOnUse" color-interpolation-filters="sRGB">
<feFlood flood-opacity="0" result="BackgroundImageFix"/>
<feColorMatrix in="SourceAlpha" type="matrix" values="0 0 0 0 0 0 0 0 0 0 0 0 0 0 0 0 0 0 127 0" result="hardAlpha"/>
<feOffset dy="3"/>
<feComposite in2="hardAlpha" operator="out"/>
<feColorMatrix type="matrix" values="0 0 0 0 0.0980392 0 0 0 0 0 0 0 0 0 0 0 0 0 0.6 0"/>
<feBlend mode="normal" in2="BackgroundImageFix" result="effect1_dropShadow_347_957"/>
<feColorMatrix in="SourceAlpha" type="matrix" values="0 0 0 0 0 0 0 0 0 0 0 0 0 0 0 0 0 0 127 0" result="hardAlpha"/>
<feOffset dy="3"/>
<feGaussianBlur stdDeviation="2"/>
<feComposite in2="hardAlpha" operator="out"/>
<feColorMatrix type="matrix" values="0 0 0 0 0.764706 0 0 0 0 0.470588 0 0 0 0 0.552941 0 0 0 0.32 0"/>
<feBlend mode="normal" in2="effect1_dropShadow_347_957" result="effect2_dropShadow_347_957"/>
<feBlend mode="normal" in="SourceGraphic" in2="effect2_dropShadow_347_957" result="shape"/>
</filter>
<filter id="filter1_dd_347_957" x="404" y="0.0415039" width="96" height="96" filterUnits="userSpaceOnUse" color-interpolation-filters="sRGB">
<feFlood flood-opacity="0" result="BackgroundImageFix"/>
<feColorMatrix in="SourceAlpha" type="matrix" values="0 0 0 0 0 0 0 0 0 0 0 0 0 0 0 0 0 0 127 0" result="hardAlpha"/>
<feOffset dy="3"/>
<feComposite in2="hardAlpha" operator="out"/>
<feColorMatrix type="matrix" values="0 0 0 0 0.0980392 0 0 0 0 0 0 0 0 0 0 0 0 0 0.6 0"/>
<feBlend mode="normal" in2="BackgroundImageFix" result="effect1_dropShadow_347_957"/>
<feColorMatrix in="SourceAlpha" type="matrix" values="0 0 0 0 0 0 0 0 0 0 0 0 0 0 0 0 0 0 127 0" result="hardAlpha"/>
<feOffset dy="3"/>
<feGaussianBlur stdDeviation="2"/>
<feComposite in2="hardAlpha" operator="out"/>
<feColorMatrix type="matrix" values="0 0 0 0 0.764706 0 0 0 0 0.470588 0 0 0 0 0.552941 0 0 0 0.32 0"/>
<feBlend mode="normal" in2="effect1_dropShadow_347_957" result="effect2_dropShadow_347_957"/>
<feBlend mode="normal" in="SourceGraphic" in2="effect2_dropShadow_347_957" result="shape"/>
</filter>
</defs>
</svg>
