<svg width="697" height="197" viewBox="0 0 697 197" fill="none" xmlns="http://www.w3.org/2000/svg">
<mask id="path-1-outside-1_347_960" maskUnits="userSpaceOnUse" x="0" y="0.0415039" width="697" height="196" fill="black">
<rect fill="white" y="0.0415039" width="697" height="196"/>
<path fill-rule="evenodd" clip-rule="evenodd" d="M675.783 182.958C678.296 173.647 680.254 164.706 681.658 156.134C683.136 147.488 684.244 139.507 684.983 132.192C685.722 124.876 686.166 118.299 686.314 112.461C686.535 106.624 686.646 101.747 686.646 97.83C686.646 82.6074 684.762 69.4909 680.993 58.4804C677.298 47.396 672.052 38.2698 665.253 31.1019C658.529 23.934 650.474 18.6504 641.089 15.2512C631.704 11.7781 621.396 10.0415 610.164 10.0415C592.44 10.0415 574.454 14.7869 561.392 27.3332C543.226 44.5431 537.529 71.5479 535.566 95.5023C533.43 124.447 533.635 154.46 539.334 182.958C540.664 182.515 543.214 182.035 546.983 181.517C548.608 181.296 550.566 181.037 552.857 180.741C555.148 180.52 557.882 180.261 561.06 179.965C564.237 179.744 567.895 179.485 572.033 179.19C576.171 178.894 580.864 178.561 586.11 178.192C585.076 171.615 584.226 165.038 583.561 158.462C582.896 151.811 582.379 145.16 582.009 138.51C590.655 138.066 599.67 137.845 609.055 137.845C613.637 137.845 618.255 137.882 622.911 137.956C627.566 138.029 632.111 138.14 636.545 138.288C635.732 145.382 634.623 152.291 633.219 159.016C631.889 165.741 630.263 172.317 628.342 178.746C644.289 178.746 660.001 180.826 675.783 182.958ZM620.472 109.358C614.117 109.579 607.725 109.69 601.296 109.69H591.098C587.773 109.616 584.522 109.469 581.344 109.247C581.344 97.0541 581.714 85.046 582.453 73.2226C583.266 61.3254 584.485 49.502 586.11 37.7525C588.18 37.383 590.618 37.0505 593.426 36.7549C596.234 36.4593 599.153 36.2377 602.183 36.0899C605.286 35.8682 608.427 35.7204 611.605 35.6465C614.856 35.4987 617.997 35.4248 621.026 35.4248C623.317 35.4248 625.46 35.4617 627.455 35.5356C629.524 35.6095 631.409 35.7204 633.108 35.8682C635.03 44.8096 636.471 54.49 637.431 64.9093C638.466 75.3287 638.983 86.1544 638.983 97.3867V102.818C638.983 104.518 638.909 106.217 638.761 107.917C632.998 108.582 626.901 109.062 620.472 109.358ZM478.809 182.072L530.795 175.088C508.544 147.622 487.197 119.399 466.062 91.0687L530.795 21.126L498.539 13.2561L425.936 89.2952V13.2561H377.608C379.825 39.5631 380.934 65.944 380.934 92.3988C380.934 107.4 380.638 122.179 380.047 136.736C379.456 151.294 378.643 165.815 377.608 180.298L425.936 178.192V109.469C443.578 133.654 462.303 157.077 478.809 182.072ZM321.225 180.076C320.93 178.377 320.523 175.273 320.006 170.765C319.489 166.258 318.898 160.937 318.233 154.804C317.641 148.671 316.976 141.946 316.237 134.63C315.498 127.315 314.796 119.962 314.131 112.572C312.432 95.2806 310.658 76.2155 308.811 55.3768L284.536 177.084L237.095 180.076C233.104 163.671 229.336 147.784 225.789 132.413C224.237 125.911 222.648 119.186 221.022 112.24C219.471 105.22 217.919 98.3843 216.367 91.7336C214.889 85.0091 213.485 78.6171 212.155 72.5576C210.899 66.4981 209.827 61.1037 208.94 56.3744C208.645 60.3648 208.238 65.2049 207.721 70.8949C207.278 76.511 206.76 82.6075 206.169 89.1842C205.652 95.6871 205.061 102.449 204.396 109.469C203.805 116.489 203.176 123.361 202.511 130.086C201.033 145.899 199.445 162.563 197.745 180.076H158.506C162.866 152.661 166.635 125.319 169.812 98.0518C173.064 70.7841 175.502 43.11 177.128 15.0295L241.639 11.5934L267.909 131.97C271.087 116.821 274.08 101.968 276.888 87.4107C278.07 81.2034 279.252 74.7375 280.435 68.013C281.691 61.2885 282.836 54.6378 283.871 48.0611C284.906 41.4104 285.866 34.9815 286.753 28.7742C287.64 22.5669 288.342 16.84 288.859 11.5934H350.156C351.634 38.7871 353.74 65.9809 356.474 93.1746C359.208 120.368 362.681 147.895 366.893 175.753L321.225 180.076ZM159.418 116.23C160.526 108.841 161.117 101.192 161.191 93.2855C161.191 89.0734 161.081 84.4918 160.859 79.5408C160.711 74.5898 160.305 68.9737 159.64 62.6925C158.974 56.3374 158.051 49.2434 156.868 41.4104C155.686 33.5036 154.097 24.5621 152.102 14.5862H109.649C110.092 18.946 110.462 23.5276 110.757 28.3308C111.127 33.1341 111.459 38.2329 111.755 43.6273C112.05 49.0217 112.272 54.7487 112.42 60.8081C112.568 66.7937 112.642 73.1857 112.642 79.9842C112.642 86.1914 112.568 92.6204 112.42 99.271C112.346 105.848 112.198 112.277 111.977 118.558C111.755 124.839 111.459 130.788 111.09 136.404C110.72 142.02 110.24 146.971 109.649 151.257C106.102 151.7 102.259 152.033 98.1211 152.255C93.9829 152.476 89.8078 152.587 85.5957 152.587C81.3836 152.587 77.2824 152.476 73.292 152.255C69.3016 152.033 65.6807 151.7 62.4293 151.257C61.5425 146.971 60.7666 142.02 60.1015 136.404C59.5104 130.714 58.9931 124.728 58.5497 118.447C58.1802 112.092 57.8847 105.589 57.663 98.9385C57.5152 92.2879 57.4413 85.822 57.4413 79.5408C57.4413 72.8163 57.626 65.9809 57.9955 59.0346C58.4389 52.0145 58.9192 45.5117 59.4365 39.5261C60.0276 33.5405 60.5819 28.3308 61.0991 23.8971C61.6903 19.4633 62.1337 16.3597 62.4293 14.5862H18.8675C17.6113 17.9115 16.429 22.1975 15.3205 27.4441C14.286 32.6168 13.3623 38.4915 12.5494 45.0683C10.6472 60.4586 10 76.013 10 91.512C10 107.991 11.8105 121.957 15.4314 133.411C19.0523 144.865 24.1511 154.176 30.7278 161.344C37.3046 168.438 45.2115 173.574 54.4485 176.751C63.6855 180.002 73.9201 181.628 85.1523 181.628C94.6849 181.628 103.183 180.52 110.646 178.303C118.11 176.16 124.65 173.13 130.266 169.214C135.882 165.297 140.648 160.642 144.565 155.247C148.481 149.779 151.659 143.756 154.097 137.18C156.536 130.603 158.309 123.62 159.418 116.23Z"/>
</mask>
<path fill-rule="evenodd" clip-rule="evenodd" d="M675.783 182.958C678.296 173.647 680.254 164.706 681.658 156.134C683.136 147.488 684.244 139.507 684.983 132.192C685.722 124.876 686.166 118.299 686.314 112.461C686.535 106.624 686.646 101.747 686.646 97.83C686.646 82.6074 684.762 69.4909 680.993 58.4804C677.298 47.396 672.052 38.2698 665.253 31.1019C658.529 23.934 650.474 18.6504 641.089 15.2512C631.704 11.7781 621.396 10.0415 610.164 10.0415C592.44 10.0415 574.454 14.7869 561.392 27.3332C543.226 44.5431 537.529 71.5479 535.566 95.5023C533.43 124.447 533.635 154.46 539.334 182.958C540.664 182.515 543.214 182.035 546.983 181.517C548.608 181.296 550.566 181.037 552.857 180.741C555.148 180.52 557.882 180.261 561.06 179.965C564.237 179.744 567.895 179.485 572.033 179.19C576.171 178.894 580.864 178.561 586.11 178.192C585.076 171.615 584.226 165.038 583.561 158.462C582.896 151.811 582.379 145.16 582.009 138.51C590.655 138.066 599.67 137.845 609.055 137.845C613.637 137.845 618.255 137.882 622.911 137.956C627.566 138.029 632.111 138.14 636.545 138.288C635.732 145.382 634.623 152.291 633.219 159.016C631.889 165.741 630.263 172.317 628.342 178.746C644.289 178.746 660.001 180.826 675.783 182.958ZM620.472 109.358C614.117 109.579 607.725 109.69 601.296 109.69H591.098C587.773 109.616 584.522 109.469 581.344 109.247C581.344 97.0541 581.714 85.046 582.453 73.2226C583.266 61.3254 584.485 49.502 586.11 37.7525C588.18 37.383 590.618 37.0505 593.426 36.7549C596.234 36.4593 599.153 36.2377 602.183 36.0899C605.286 35.8682 608.427 35.7204 611.605 35.6465C614.856 35.4987 617.997 35.4248 621.026 35.4248C623.317 35.4248 625.46 35.4617 627.455 35.5356C629.524 35.6095 631.409 35.7204 633.108 35.8682C635.03 44.8096 636.471 54.49 637.431 64.9093C638.466 75.3287 638.983 86.1544 638.983 97.3867V102.818C638.983 104.518 638.909 106.217 638.761 107.917C632.998 108.582 626.901 109.062 620.472 109.358ZM478.809 182.072L530.795 175.088C508.544 147.622 487.197 119.399 466.062 91.0687L530.795 21.126L498.539 13.2561L425.936 89.2952V13.2561H377.608C379.825 39.5631 380.934 65.944 380.934 92.3988C380.934 107.4 380.638 122.179 380.047 136.736C379.456 151.294 378.643 165.815 377.608 180.298L425.936 178.192V109.469C443.578 133.654 462.303 157.077 478.809 182.072ZM321.225 180.076C320.93 178.377 320.523 175.273 320.006 170.765C319.489 166.258 318.898 160.937 318.233 154.804C317.641 148.671 316.976 141.946 316.237 134.63C315.498 127.315 314.796 119.962 314.131 112.572C312.432 95.2806 310.658 76.2155 308.811 55.3768L284.536 177.084L237.095 180.076C233.104 163.671 229.336 147.784 225.789 132.413C224.237 125.911 222.648 119.186 221.022 112.24C219.471 105.22 217.919 98.3843 216.367 91.7336C214.889 85.0091 213.485 78.6171 212.155 72.5576C210.899 66.4981 209.827 61.1037 208.94 56.3744C208.645 60.3648 208.238 65.2049 207.721 70.8949C207.278 76.511 206.76 82.6075 206.169 89.1842C205.652 95.6871 205.061 102.449 204.396 109.469C203.805 116.489 203.176 123.361 202.511 130.086C201.033 145.899 199.445 162.563 197.745 180.076H158.506C162.866 152.661 166.635 125.319 169.812 98.0518C173.064 70.7841 175.502 43.11 177.128 15.0295L241.639 11.5934L267.909 131.97C271.087 116.821 274.08 101.968 276.888 87.4107C278.07 81.2034 279.252 74.7375 280.435 68.013C281.691 61.2885 282.836 54.6378 283.871 48.0611C284.906 41.4104 285.866 34.9815 286.753 28.7742C287.64 22.5669 288.342 16.84 288.859 11.5934H350.156C351.634 38.7871 353.74 65.9809 356.474 93.1746C359.208 120.368 362.681 147.895 366.893 175.753L321.225 180.076ZM159.418 116.23C160.526 108.841 161.117 101.192 161.191 93.2855C161.191 89.0734 161.081 84.4918 160.859 79.5408C160.711 74.5898 160.305 68.9737 159.64 62.6925C158.974 56.3374 158.051 49.2434 156.868 41.4104C155.686 33.5036 154.097 24.5621 152.102 14.5862H109.649C110.092 18.946 110.462 23.5276 110.757 28.3308C111.127 33.1341 111.459 38.2329 111.755 43.6273C112.05 49.0217 112.272 54.7487 112.42 60.8081C112.568 66.7937 112.642 73.1857 112.642 79.9842C112.642 86.1914 112.568 92.6204 112.42 99.271C112.346 105.848 112.198 112.277 111.977 118.558C111.755 124.839 111.459 130.788 111.09 136.404C110.72 142.02 110.24 146.971 109.649 151.257C106.102 151.7 102.259 152.033 98.1211 152.255C93.9829 152.476 89.8078 152.587 85.5957 152.587C81.3836 152.587 77.2824 152.476 73.292 152.255C69.3016 152.033 65.6807 151.7 62.4293 151.257C61.5425 146.971 60.7666 142.02 60.1015 136.404C59.5104 130.714 58.9931 124.728 58.5497 118.447C58.1802 112.092 57.8847 105.589 57.663 98.9385C57.5152 92.2879 57.4413 85.822 57.4413 79.5408C57.4413 72.8163 57.626 65.9809 57.9955 59.0346C58.4389 52.0145 58.9192 45.5117 59.4365 39.5261C60.0276 33.5405 60.5819 28.3308 61.0991 23.8971C61.6903 19.4633 62.1337 16.3597 62.4293 14.5862H18.8675C17.6113 17.9115 16.429 22.1975 15.3205 27.4441C14.286 32.6168 13.3623 38.4915 12.5494 45.0683C10.6472 60.4586 10 76.013 10 91.512C10 107.991 11.8105 121.957 15.4314 133.411C19.0523 144.865 24.1511 154.176 30.7278 161.344C37.3046 168.438 45.2115 173.574 54.4485 176.751C63.6855 180.002 73.9201 181.628 85.1523 181.628C94.6849 181.628 103.183 180.52 110.646 178.303C118.11 176.16 124.65 173.13 130.266 169.214C135.882 165.297 140.648 160.642 144.565 155.247C148.481 149.779 151.659 143.756 154.097 137.18C156.536 130.603 158.309 123.62 159.418 116.23Z" fill="url(#paint0_linear_347_960)"/>
<path fill-rule="evenodd" clip-rule="evenodd" d="M675.783 182.958C678.296 173.647 680.254 164.706 681.658 156.134C683.136 147.488 684.244 139.507 684.983 132.192C685.722 124.876 686.166 118.299 686.314 112.461C686.535 106.624 686.646 101.747 686.646 97.83C686.646 82.6074 684.762 69.4909 680.993 58.4804C677.298 47.396 672.052 38.2698 665.253 31.1019C658.529 23.934 650.474 18.6504 641.089 15.2512C631.704 11.7781 621.396 10.0415 610.164 10.0415C592.44 10.0415 574.454 14.7869 561.392 27.3332C543.226 44.5431 537.529 71.5479 535.566 95.5023C533.43 124.447 533.635 154.46 539.334 182.958C540.664 182.515 543.214 182.035 546.983 181.517C548.608 181.296 550.566 181.037 552.857 180.741C555.148 180.52 557.882 180.261 561.06 179.965C564.237 179.744 567.895 179.485 572.033 179.19C576.171 178.894 580.864 178.561 586.11 178.192C585.076 171.615 584.226 165.038 583.561 158.462C582.896 151.811 582.379 145.16 582.009 138.51C590.655 138.066 599.67 137.845 609.055 137.845C613.637 137.845 618.255 137.882 622.911 137.956C627.566 138.029 632.111 138.14 636.545 138.288C635.732 145.382 634.623 152.291 633.219 159.016C631.889 165.741 630.263 172.317 628.342 178.746C644.289 178.746 660.001 180.826 675.783 182.958ZM620.472 109.358C614.117 109.579 607.725 109.69 601.296 109.69H591.098C587.773 109.616 584.522 109.469 581.344 109.247C581.344 97.0541 581.714 85.046 582.453 73.2226C583.266 61.3254 584.485 49.502 586.11 37.7525C588.18 37.383 590.618 37.0505 593.426 36.7549C596.234 36.4593 599.153 36.2377 602.183 36.0899C605.286 35.8682 608.427 35.7204 611.605 35.6465C614.856 35.4987 617.997 35.4248 621.026 35.4248C623.317 35.4248 625.46 35.4617 627.455 35.5356C629.524 35.6095 631.409 35.7204 633.108 35.8682C635.03 44.8096 636.471 54.49 637.431 64.9093C638.466 75.3287 638.983 86.1544 638.983 97.3867V102.818C638.983 104.518 638.909 106.217 638.761 107.917C632.998 108.582 626.901 109.062 620.472 109.358ZM478.809 182.072L530.795 175.088C508.544 147.622 487.197 119.399 466.062 91.0687L530.795 21.126L498.539 13.2561L425.936 89.2952V13.2561H377.608C379.825 39.5631 380.934 65.944 380.934 92.3988C380.934 107.4 380.638 122.179 380.047 136.736C379.456 151.294 378.643 165.815 377.608 180.298L425.936 178.192V109.469C443.578 133.654 462.303 157.077 478.809 182.072ZM321.225 180.076C320.93 178.377 320.523 175.273 320.006 170.765C319.489 166.258 318.898 160.937 318.233 154.804C317.641 148.671 316.976 141.946 316.237 134.63C315.498 127.315 314.796 119.962 314.131 112.572C312.432 95.2806 310.658 76.2155 308.811 55.3768L284.536 177.084L237.095 180.076C233.104 163.671 229.336 147.784 225.789 132.413C224.237 125.911 222.648 119.186 221.022 112.24C219.471 105.22 217.919 98.3843 216.367 91.7336C214.889 85.0091 213.485 78.6171 212.155 72.5576C210.899 66.4981 209.827 61.1037 208.94 56.3744C208.645 60.3648 208.238 65.2049 207.721 70.8949C207.278 76.511 206.76 82.6075 206.169 89.1842C205.652 95.6871 205.061 102.449 204.396 109.469C203.805 116.489 203.176 123.361 202.511 130.086C201.033 145.899 199.445 162.563 197.745 180.076H158.506C162.866 152.661 166.635 125.319 169.812 98.0518C173.064 70.7841 175.502 43.11 177.128 15.0295L241.639 11.5934L267.909 131.97C271.087 116.821 274.08 101.968 276.888 87.4107C278.07 81.2034 279.252 74.7375 280.435 68.013C281.691 61.2885 282.836 54.6378 283.871 48.0611C284.906 41.4104 285.866 34.9815 286.753 28.7742C287.64 22.5669 288.342 16.84 288.859 11.5934H350.156C351.634 38.7871 353.74 65.9809 356.474 93.1746C359.208 120.368 362.681 147.895 366.893 175.753L321.225 180.076ZM159.418 116.23C160.526 108.841 161.117 101.192 161.191 93.2855C161.191 89.0734 161.081 84.4918 160.859 79.5408C160.711 74.5898 160.305 68.9737 159.64 62.6925C158.974 56.3374 158.051 49.2434 156.868 41.4104C155.686 33.5036 154.097 24.5621 152.102 14.5862H109.649C110.092 18.946 110.462 23.5276 110.757 28.3308C111.127 33.1341 111.459 38.2329 111.755 43.6273C112.05 49.0217 112.272 54.7487 112.42 60.8081C112.568 66.7937 112.642 73.1857 112.642 79.9842C112.642 86.1914 112.568 92.6204 112.42 99.271C112.346 105.848 112.198 112.277 111.977 118.558C111.755 124.839 111.459 130.788 111.09 136.404C110.72 142.02 110.24 146.971 109.649 151.257C106.102 151.7 102.259 152.033 98.1211 152.255C93.9829 152.476 89.8078 152.587 85.5957 152.587C81.3836 152.587 77.2824 152.476 73.292 152.255C69.3016 152.033 65.6807 151.7 62.4293 151.257C61.5425 146.971 60.7666 142.02 60.1015 136.404C59.5104 130.714 58.9931 124.728 58.5497 118.447C58.1802 112.092 57.8847 105.589 57.663 98.9385C57.5152 92.2879 57.4413 85.822 57.4413 79.5408C57.4413 72.8163 57.626 65.9809 57.9955 59.0346C58.4389 52.0145 58.9192 45.5117 59.4365 39.5261C60.0276 33.5405 60.5819 28.3308 61.0991 23.8971C61.6903 19.4633 62.1337 16.3597 62.4293 14.5862H18.8675C17.6113 17.9115 16.429 22.1975 15.3205 27.4441C14.286 32.6168 13.3623 38.4915 12.5494 45.0683C10.6472 60.4586 10 76.013 10 91.512C10 107.991 11.8105 121.957 15.4314 133.411C19.0523 144.865 24.1511 154.176 30.7278 161.344C37.3046 168.438 45.2115 173.574 54.4485 176.751C63.6855 180.002 73.9201 181.628 85.1523 181.628C94.6849 181.628 103.183 180.52 110.646 178.303C118.11 176.16 124.65 173.13 130.266 169.214C135.882 165.297 140.648 160.642 144.565 155.247C148.481 149.779 151.659 143.756 154.097 137.18C156.536 130.603 158.309 123.62 159.418 116.23Z" stroke="white" stroke-width="20" mask="url(#path-1-outside-1_347_960)"/>
<mask id="path-2-outside-2_347_960" maskUnits="userSpaceOnUse" x="5" y="5.0415" width="687" height="185" fill="black">
<rect fill="white" x="5" y="5.0415" width="687" height="185"/>
<path fill-rule="evenodd" clip-rule="evenodd" d="M675.783 182.958C678.296 173.647 680.254 164.706 681.658 156.134C683.136 147.488 684.244 139.507 684.983 132.192C685.722 124.876 686.166 118.299 686.314 112.461C686.535 106.624 686.646 101.747 686.646 97.83C686.646 82.6074 684.762 69.4909 680.993 58.4804C677.298 47.396 672.052 38.2698 665.253 31.1019C658.529 23.934 650.474 18.6504 641.089 15.2512C631.704 11.7781 621.396 10.0415 610.164 10.0415C592.44 10.0415 574.454 14.7869 561.392 27.3332C543.226 44.5431 537.529 71.5479 535.566 95.5023C533.43 124.447 533.635 154.46 539.334 182.958C540.664 182.515 543.214 182.035 546.983 181.517C548.608 181.296 550.566 181.037 552.857 180.741C555.148 180.52 557.882 180.261 561.06 179.965C564.237 179.744 567.895 179.485 572.033 179.19C576.171 178.894 580.864 178.561 586.11 178.192C585.076 171.615 584.226 165.038 583.561 158.462C582.896 151.811 582.379 145.16 582.009 138.51C590.655 138.066 599.67 137.845 609.055 137.845C613.637 137.845 618.255 137.882 622.911 137.956C627.566 138.029 632.111 138.14 636.545 138.288C635.732 145.382 634.623 152.291 633.219 159.016C631.889 165.741 630.263 172.317 628.342 178.746C644.289 178.746 660.001 180.826 675.783 182.958ZM620.472 109.358C614.117 109.579 607.725 109.69 601.296 109.69H591.098C587.773 109.616 584.522 109.469 581.344 109.247C581.344 97.0541 581.714 85.046 582.453 73.2226C583.266 61.3254 584.485 49.502 586.11 37.7525C588.18 37.383 590.618 37.0505 593.426 36.7549C596.234 36.4593 599.153 36.2377 602.183 36.0899C605.286 35.8682 608.427 35.7204 611.605 35.6465C614.856 35.4987 617.997 35.4248 621.026 35.4248C623.317 35.4248 625.46 35.4617 627.455 35.5356C629.524 35.6095 631.409 35.7204 633.108 35.8682C635.03 44.8096 636.471 54.49 637.431 64.9093C638.466 75.3287 638.983 86.1544 638.983 97.3867V102.818C638.983 104.518 638.909 106.217 638.761 107.917C632.998 108.582 626.901 109.062 620.472 109.358ZM478.809 182.072L530.795 175.088C508.544 147.622 487.197 119.399 466.062 91.0687L530.795 21.126L498.539 13.2561L425.936 89.2952V13.2561H377.608C379.825 39.5631 380.934 65.944 380.934 92.3988C380.934 107.4 380.638 122.179 380.047 136.736C379.456 151.294 378.643 165.815 377.608 180.298L425.936 178.192V109.469C443.578 133.654 462.303 157.077 478.809 182.072ZM321.225 180.076C320.93 178.377 320.523 175.273 320.006 170.765C319.489 166.258 318.898 160.937 318.233 154.804C317.641 148.671 316.976 141.946 316.237 134.63C315.498 127.315 314.796 119.962 314.131 112.572C312.432 95.2806 310.658 76.2155 308.811 55.3768L284.536 177.084L237.095 180.076C233.104 163.671 229.336 147.784 225.789 132.413C224.237 125.911 222.648 119.186 221.022 112.24C219.471 105.22 217.919 98.3843 216.367 91.7336C214.889 85.0091 213.485 78.6171 212.155 72.5576C210.899 66.4981 209.827 61.1037 208.94 56.3744C208.645 60.3648 208.238 65.2049 207.721 70.8949C207.278 76.511 206.76 82.6075 206.169 89.1842C205.652 95.6871 205.061 102.449 204.396 109.469C203.805 116.489 203.176 123.361 202.511 130.086C201.033 145.899 199.445 162.563 197.745 180.076H158.506C162.866 152.661 166.635 125.319 169.812 98.0518C173.064 70.7841 175.502 43.11 177.128 15.0295L241.639 11.5934L267.909 131.97C271.087 116.821 274.08 101.968 276.888 87.4107C278.07 81.2034 279.252 74.7375 280.435 68.013C281.691 61.2885 282.836 54.6378 283.871 48.0611C284.906 41.4104 285.866 34.9815 286.753 28.7742C287.64 22.5669 288.342 16.84 288.859 11.5934H350.156C351.634 38.7871 353.74 65.9809 356.474 93.1746C359.208 120.368 362.681 147.895 366.893 175.753L321.225 180.076ZM159.418 116.23C160.526 108.841 161.117 101.192 161.191 93.2855C161.191 89.0734 161.081 84.4918 160.859 79.5408C160.711 74.5898 160.305 68.9737 159.64 62.6925C158.974 56.3374 158.051 49.2434 156.868 41.4104C155.686 33.5036 154.097 24.5621 152.102 14.5862H109.649C110.092 18.946 110.462 23.5276 110.757 28.3308C111.127 33.1341 111.459 38.2329 111.755 43.6273C112.05 49.0217 112.272 54.7487 112.42 60.8081C112.568 66.7937 112.642 73.1857 112.642 79.9842C112.642 86.1914 112.568 92.6204 112.42 99.271C112.346 105.848 112.198 112.277 111.977 118.558C111.755 124.839 111.459 130.788 111.09 136.404C110.72 142.02 110.24 146.971 109.649 151.257C106.102 151.7 102.259 152.033 98.1211 152.255C93.9829 152.476 89.8078 152.587 85.5957 152.587C81.3836 152.587 77.2824 152.476 73.292 152.255C69.3016 152.033 65.6807 151.7 62.4293 151.257C61.5425 146.971 60.7666 142.02 60.1015 136.404C59.5104 130.714 58.9931 124.728 58.5497 118.447C58.1802 112.092 57.8847 105.589 57.663 98.9385C57.5152 92.2879 57.4413 85.822 57.4413 79.5408C57.4413 72.8163 57.626 65.9809 57.9955 59.0346C58.4389 52.0145 58.9192 45.5117 59.4365 39.5261C60.0276 33.5405 60.5819 28.3308 61.0991 23.8971C61.6903 19.4633 62.1337 16.3597 62.4293 14.5862H18.8675C17.6113 17.9115 16.429 22.1975 15.3205 27.4441C14.286 32.6168 13.3623 38.4915 12.5494 45.0683C10.6472 60.4586 10 76.013 10 91.512C10 107.991 11.8105 121.957 15.4314 133.411C19.0523 144.865 24.1511 154.176 30.7278 161.344C37.3046 168.438 45.2115 173.574 54.4485 176.751C63.6855 180.002 73.9201 181.628 85.1523 181.628C94.6849 181.628 103.183 180.52 110.646 178.303C118.11 176.16 124.65 173.13 130.266 169.214C135.882 165.297 140.648 160.642 144.565 155.247C148.481 149.779 151.659 143.756 154.097 137.18C156.536 130.603 158.309 123.62 159.418 116.23Z"/>
</mask>
<path fill-rule="evenodd" clip-rule="evenodd" d="M675.783 182.958C678.296 173.647 680.254 164.706 681.658 156.134C683.136 147.488 684.244 139.507 684.983 132.192C685.722 124.876 686.166 118.299 686.314 112.461C686.535 106.624 686.646 101.747 686.646 97.83C686.646 82.6074 684.762 69.4909 680.993 58.4804C677.298 47.396 672.052 38.2698 665.253 31.1019C658.529 23.934 650.474 18.6504 641.089 15.2512C631.704 11.7781 621.396 10.0415 610.164 10.0415C592.44 10.0415 574.454 14.7869 561.392 27.3332C543.226 44.5431 537.529 71.5479 535.566 95.5023C533.43 124.447 533.635 154.46 539.334 182.958C540.664 182.515 543.214 182.035 546.983 181.517C548.608 181.296 550.566 181.037 552.857 180.741C555.148 180.52 557.882 180.261 561.06 179.965C564.237 179.744 567.895 179.485 572.033 179.19C576.171 178.894 580.864 178.561 586.11 178.192C585.076 171.615 584.226 165.038 583.561 158.462C582.896 151.811 582.379 145.16 582.009 138.51C590.655 138.066 599.67 137.845 609.055 137.845C613.637 137.845 618.255 137.882 622.911 137.956C627.566 138.029 632.111 138.14 636.545 138.288C635.732 145.382 634.623 152.291 633.219 159.016C631.889 165.741 630.263 172.317 628.342 178.746C644.289 178.746 660.001 180.826 675.783 182.958ZM620.472 109.358C614.117 109.579 607.725 109.69 601.296 109.69H591.098C587.773 109.616 584.522 109.469 581.344 109.247C581.344 97.0541 581.714 85.046 582.453 73.2226C583.266 61.3254 584.485 49.502 586.11 37.7525C588.18 37.383 590.618 37.0505 593.426 36.7549C596.234 36.4593 599.153 36.2377 602.183 36.0899C605.286 35.8682 608.427 35.7204 611.605 35.6465C614.856 35.4987 617.997 35.4248 621.026 35.4248C623.317 35.4248 625.46 35.4617 627.455 35.5356C629.524 35.6095 631.409 35.7204 633.108 35.8682C635.03 44.8096 636.471 54.49 637.431 64.9093C638.466 75.3287 638.983 86.1544 638.983 97.3867V102.818C638.983 104.518 638.909 106.217 638.761 107.917C632.998 108.582 626.901 109.062 620.472 109.358ZM478.809 182.072L530.795 175.088C508.544 147.622 487.197 119.399 466.062 91.0687L530.795 21.126L498.539 13.2561L425.936 89.2952V13.2561H377.608C379.825 39.5631 380.934 65.944 380.934 92.3988C380.934 107.4 380.638 122.179 380.047 136.736C379.456 151.294 378.643 165.815 377.608 180.298L425.936 178.192V109.469C443.578 133.654 462.303 157.077 478.809 182.072ZM321.225 180.076C320.93 178.377 320.523 175.273 320.006 170.765C319.489 166.258 318.898 160.937 318.233 154.804C317.641 148.671 316.976 141.946 316.237 134.63C315.498 127.315 314.796 119.962 314.131 112.572C312.432 95.2806 310.658 76.2155 308.811 55.3768L284.536 177.084L237.095 180.076C233.104 163.671 229.336 147.784 225.789 132.413C224.237 125.911 222.648 119.186 221.022 112.24C219.471 105.22 217.919 98.3843 216.367 91.7336C214.889 85.0091 213.485 78.6171 212.155 72.5576C210.899 66.4981 209.827 61.1037 208.94 56.3744C208.645 60.3648 208.238 65.2049 207.721 70.8949C207.278 76.511 206.76 82.6075 206.169 89.1842C205.652 95.6871 205.061 102.449 204.396 109.469C203.805 116.489 203.176 123.361 202.511 130.086C201.033 145.899 199.445 162.563 197.745 180.076H158.506C162.866 152.661 166.635 125.319 169.812 98.0518C173.064 70.7841 175.502 43.11 177.128 15.0295L241.639 11.5934L267.909 131.97C271.087 116.821 274.08 101.968 276.888 87.4107C278.07 81.2034 279.252 74.7375 280.435 68.013C281.691 61.2885 282.836 54.6378 283.871 48.0611C284.906 41.4104 285.866 34.9815 286.753 28.7742C287.64 22.5669 288.342 16.84 288.859 11.5934H350.156C351.634 38.7871 353.74 65.9809 356.474 93.1746C359.208 120.368 362.681 147.895 366.893 175.753L321.225 180.076ZM159.418 116.23C160.526 108.841 161.117 101.192 161.191 93.2855C161.191 89.0734 161.081 84.4918 160.859 79.5408C160.711 74.5898 160.305 68.9737 159.64 62.6925C158.974 56.3374 158.051 49.2434 156.868 41.4104C155.686 33.5036 154.097 24.5621 152.102 14.5862H109.649C110.092 18.946 110.462 23.5276 110.757 28.3308C111.127 33.1341 111.459 38.2329 111.755 43.6273C112.05 49.0217 112.272 54.7487 112.42 60.8081C112.568 66.7937 112.642 73.1857 112.642 79.9842C112.642 86.1914 112.568 92.6204 112.42 99.271C112.346 105.848 112.198 112.277 111.977 118.558C111.755 124.839 111.459 130.788 111.09 136.404C110.72 142.02 110.24 146.971 109.649 151.257C106.102 151.7 102.259 152.033 98.1211 152.255C93.9829 152.476 89.8078 152.587 85.5957 152.587C81.3836 152.587 77.2824 152.476 73.292 152.255C69.3016 152.033 65.6807 151.7 62.4293 151.257C61.5425 146.971 60.7666 142.02 60.1015 136.404C59.5104 130.714 58.9931 124.728 58.5497 118.447C58.1802 112.092 57.8847 105.589 57.663 98.9385C57.5152 92.2879 57.4413 85.822 57.4413 79.5408C57.4413 72.8163 57.626 65.9809 57.9955 59.0346C58.4389 52.0145 58.9192 45.5117 59.4365 39.5261C60.0276 33.5405 60.5819 28.3308 61.0991 23.8971C61.6903 19.4633 62.1337 16.3597 62.4293 14.5862H18.8675C17.6113 17.9115 16.429 22.1975 15.3205 27.4441C14.286 32.6168 13.3623 38.4915 12.5494 45.0683C10.6472 60.4586 10 76.013 10 91.512C10 107.991 11.8105 121.957 15.4314 133.411C19.0523 144.865 24.1511 154.176 30.7278 161.344C37.3046 168.438 45.2115 173.574 54.4485 176.751C63.6855 180.002 73.9201 181.628 85.1523 181.628C94.6849 181.628 103.183 180.52 110.646 178.303C118.11 176.16 124.65 173.13 130.266 169.214C135.882 165.297 140.648 160.642 144.565 155.247C148.481 149.779 151.659 143.756 154.097 137.18C156.536 130.603 158.309 123.62 159.418 116.23Z" fill="url(#paint1_linear_347_960)"/>
<path fill-rule="evenodd" clip-rule="evenodd" d="M675.783 182.958C678.296 173.647 680.254 164.706 681.658 156.134C683.136 147.488 684.244 139.507 684.983 132.192C685.722 124.876 686.166 118.299 686.314 112.461C686.535 106.624 686.646 101.747 686.646 97.83C686.646 82.6074 684.762 69.4909 680.993 58.4804C677.298 47.396 672.052 38.2698 665.253 31.1019C658.529 23.934 650.474 18.6504 641.089 15.2512C631.704 11.7781 621.396 10.0415 610.164 10.0415C592.44 10.0415 574.454 14.7869 561.392 27.3332C543.226 44.5431 537.529 71.5479 535.566 95.5023C533.43 124.447 533.635 154.46 539.334 182.958C540.664 182.515 543.214 182.035 546.983 181.517C548.608 181.296 550.566 181.037 552.857 180.741C555.148 180.52 557.882 180.261 561.06 179.965C564.237 179.744 567.895 179.485 572.033 179.19C576.171 178.894 580.864 178.561 586.11 178.192C585.076 171.615 584.226 165.038 583.561 158.462C582.896 151.811 582.379 145.16 582.009 138.51C590.655 138.066 599.67 137.845 609.055 137.845C613.637 137.845 618.255 137.882 622.911 137.956C627.566 138.029 632.111 138.14 636.545 138.288C635.732 145.382 634.623 152.291 633.219 159.016C631.889 165.741 630.263 172.317 628.342 178.746C644.289 178.746 660.001 180.826 675.783 182.958ZM620.472 109.358C614.117 109.579 607.725 109.69 601.296 109.69H591.098C587.773 109.616 584.522 109.469 581.344 109.247C581.344 97.0541 581.714 85.046 582.453 73.2226C583.266 61.3254 584.485 49.502 586.11 37.7525C588.18 37.383 590.618 37.0505 593.426 36.7549C596.234 36.4593 599.153 36.2377 602.183 36.0899C605.286 35.8682 608.427 35.7204 611.605 35.6465C614.856 35.4987 617.997 35.4248 621.026 35.4248C623.317 35.4248 625.46 35.4617 627.455 35.5356C629.524 35.6095 631.409 35.7204 633.108 35.8682C635.03 44.8096 636.471 54.49 637.431 64.9093C638.466 75.3287 638.983 86.1544 638.983 97.3867V102.818C638.983 104.518 638.909 106.217 638.761 107.917C632.998 108.582 626.901 109.062 620.472 109.358ZM478.809 182.072L530.795 175.088C508.544 147.622 487.197 119.399 466.062 91.0687L530.795 21.126L498.539 13.2561L425.936 89.2952V13.2561H377.608C379.825 39.5631 380.934 65.944 380.934 92.3988C380.934 107.4 380.638 122.179 380.047 136.736C379.456 151.294 378.643 165.815 377.608 180.298L425.936 178.192V109.469C443.578 133.654 462.303 157.077 478.809 182.072ZM321.225 180.076C320.93 178.377 320.523 175.273 320.006 170.765C319.489 166.258 318.898 160.937 318.233 154.804C317.641 148.671 316.976 141.946 316.237 134.63C315.498 127.315 314.796 119.962 314.131 112.572C312.432 95.2806 310.658 76.2155 308.811 55.3768L284.536 177.084L237.095 180.076C233.104 163.671 229.336 147.784 225.789 132.413C224.237 125.911 222.648 119.186 221.022 112.24C219.471 105.22 217.919 98.3843 216.367 91.7336C214.889 85.0091 213.485 78.6171 212.155 72.5576C210.899 66.4981 209.827 61.1037 208.94 56.3744C208.645 60.3648 208.238 65.2049 207.721 70.8949C207.278 76.511 206.76 82.6075 206.169 89.1842C205.652 95.6871 205.061 102.449 204.396 109.469C203.805 116.489 203.176 123.361 202.511 130.086C201.033 145.899 199.445 162.563 197.745 180.076H158.506C162.866 152.661 166.635 125.319 169.812 98.0518C173.064 70.7841 175.502 43.11 177.128 15.0295L241.639 11.5934L267.909 131.97C271.087 116.821 274.08 101.968 276.888 87.4107C278.07 81.2034 279.252 74.7375 280.435 68.013C281.691 61.2885 282.836 54.6378 283.871 48.0611C284.906 41.4104 285.866 34.9815 286.753 28.7742C287.64 22.5669 288.342 16.84 288.859 11.5934H350.156C351.634 38.7871 353.74 65.9809 356.474 93.1746C359.208 120.368 362.681 147.895 366.893 175.753L321.225 180.076ZM159.418 116.23C160.526 108.841 161.117 101.192 161.191 93.2855C161.191 89.0734 161.081 84.4918 160.859 79.5408C160.711 74.5898 160.305 68.9737 159.64 62.6925C158.974 56.3374 158.051 49.2434 156.868 41.4104C155.686 33.5036 154.097 24.5621 152.102 14.5862H109.649C110.092 18.946 110.462 23.5276 110.757 28.3308C111.127 33.1341 111.459 38.2329 111.755 43.6273C112.05 49.0217 112.272 54.7487 112.42 60.8081C112.568 66.7937 112.642 73.1857 112.642 79.9842C112.642 86.1914 112.568 92.6204 112.42 99.271C112.346 105.848 112.198 112.277 111.977 118.558C111.755 124.839 111.459 130.788 111.09 136.404C110.72 142.02 110.24 146.971 109.649 151.257C106.102 151.7 102.259 152.033 98.1211 152.255C93.9829 152.476 89.8078 152.587 85.5957 152.587C81.3836 152.587 77.2824 152.476 73.292 152.255C69.3016 152.033 65.6807 151.7 62.4293 151.257C61.5425 146.971 60.7666 142.02 60.1015 136.404C59.5104 130.714 58.9931 124.728 58.5497 118.447C58.1802 112.092 57.8847 105.589 57.663 98.9385C57.5152 92.2879 57.4413 85.822 57.4413 79.5408C57.4413 72.8163 57.626 65.9809 57.9955 59.0346C58.4389 52.0145 58.9192 45.5117 59.4365 39.5261C60.0276 33.5405 60.5819 28.3308 61.0991 23.8971C61.6903 19.4633 62.1337 16.3597 62.4293 14.5862H18.8675C17.6113 17.9115 16.429 22.1975 15.3205 27.4441C14.286 32.6168 13.3623 38.4915 12.5494 45.0683C10.6472 60.4586 10 76.013 10 91.512C10 107.991 11.8105 121.957 15.4314 133.411C19.0523 144.865 24.1511 154.176 30.7278 161.344C37.3046 168.438 45.2115 173.574 54.4485 176.751C63.6855 180.002 73.9201 181.628 85.1523 181.628C94.6849 181.628 103.183 180.52 110.646 178.303C118.11 176.16 124.65 173.13 130.266 169.214C135.882 165.297 140.648 160.642 144.565 155.247C148.481 149.779 151.659 143.756 154.097 137.18C156.536 130.603 158.309 123.62 159.418 116.23Z" stroke="black" stroke-width="10" mask="url(#path-2-outside-2_347_960)"/>
<defs>
<linearGradient id="paint0_linear_347_960" x1="-3.4884" y1="15.7083" x2="686.512" y2="182.708" gradientUnits="userSpaceOnUse">
<stop stop-color="#FF7199"/>
<stop offset="0.5" stop-color="#FFCF73"/>
<stop offset="1" stop-color="#FF7199"/>
</linearGradient>
<linearGradient id="paint1_linear_347_960" x1="687" y1="182.958" x2="10" y2="10.0415" gradientUnits="userSpaceOnUse">
<stop stop-color="#C363FF"/>
<stop offset="1" stop-color="#FFA414"/>
</linearGradient>
</defs>
</svg>
